<?xml version="1.0" encoding="UTF-8" standalone="no"?>
<svg xmlns="http://www.w3.org/2000/svg" 
    xmlns:xlink="http://www.w3.org/1999/xlink" version="1.1" height="244.640" width="169.075" viewBox="0 0 169.075 244.640">    <!-- SVG-cards 4.0.0                                                       -->    <!-- This set of SVG files is a complete cards game with figures, numbers  -->    <!--    and backs of cards completely designed in SVG.                     -->    <!--                                                                       -->    <!--    Copyright (C) 2005 David Bellot                                    -->    <!--    Copyright (C) 2016, 2017 Huub de Beer                              -->    <!--                                                                       -->    <!--    This library is free software; you can redistribute it and/or      -->    <!--    modify it under the terms of the GNU Lesser General Public         -->    <!--    License as published by the Free Software Foundation; either       -->    <!--    version 2 of the License, or (at your option) any later version    -->    <!--                                                                       -->    <!--    This library is distributed in the hope that it will be useful,    -->    <!--    but WITHOUT ANY WARRANTY; without even the implied warranty of     -->    <!--    MERCHANTABILITY or FITNESS FOR A PARTICULAR PURPOSE.  See the GNU  -->    <!--    Lesser General Public License for more details.                    -->    <!--                                                                       -->    <!--    You should have received a copy of the GNU Lesser General Public   -->    <!--    License along with this library; if not, write to the Free         -->    <!--    Software Foundation, Inc., 59 Temple Place, Suite 330, Boston, MA  -->    <!--    02111-1307  USA-->    <!--                                                                       -->    <!--    Contact the author David Bellot at david.bellot@free.fr            -->    <!--    Contact the author Huub de Beer at Huub@heerdebeer.org             -->
    <defs>
        <g id="n_10" style="fill:#5c5c4b">
            <text transform="scale(0.32258 1.05741)" font-family="Candara,Calibri,Segoe,Segoe UI,Optima,Arial,sans-serif" font-weight="bold" font-size="43" id="text7">10</text>
        </g>
        <g id="n_1" style="fill:#5c5c4b">
            <text transform="scale(0.56453 1.05741)" font-family="Candara,Calibri,Segoe,Segoe UI,Optima,Arial,sans-serif" font-weight="bold" font-size="43" id="text10">1</text>
        </g>
        <g id="n_2" style="fill:#5c5c4b">
            <text transform="scale(0.56453 1.05741)" font-family="Candara,Calibri,Segoe,Segoe UI,Optima,Arial,sans-serif" font-weight="bold" font-size="43" id="text13">2</text>
        </g>
        <g id="n_3" style="fill:#5c5c4b">
            <text transform="scale(0.56453 1.05741)" font-family="Candara,Calibri,Segoe,Segoe UI,Optima,Arial,sans-serif" font-weight="bold" font-size="43" id="text16">3</text>
        </g>
        <g id="n_4" style="fill:#5c5c4b">
            <text transform="scale(0.56453 1.05741)" font-family="Candara,Calibri,Segoe,Segoe UI,Optima,Arial,sans-serif" font-weight="bold" font-size="43" id="text19">4</text>
        </g>
        <g id="n_5" style="fill:#5c5c4b">
            <text transform="scale(0.56453 1.05741)" font-family="Candara,Calibri,Segoe,Segoe UI,Optima,Arial,sans-serif" font-weight="bold" font-size="43" id="text22">5</text>
        </g>
        <g id="n_6" style="fill:#5c5c4b">
            <text transform="scale(0.56453 1.05741)" font-family="Candara,Calibri,Segoe,Segoe UI,Optima,Arial,sans-serif" font-weight="bold" font-size="43" id="text25">6</text>
        </g>
        <g id="n_7" style="fill:#5c5c4b">
            <text transform="scale(0.56453 1.05741)" font-family="Candara,Calibri,Segoe,Segoe UI,Optima,Arial,sans-serif" font-weight="bold" font-size="43" id="text28">7</text>
        </g>
        <g id="n_8" style="fill:#5c5c4b">
            <text transform="scale(0.56453 1.05741)" font-family="Candara,Calibri,Segoe,Segoe UI,Optima,Arial,sans-serif" font-weight="bold" font-size="43" id="text31">8</text>
        </g>
        <g id="n_9" style="fill:#5c5c4b">
            <text transform="scale(0.56453 1.05741)" font-family="Candara,Calibri,Segoe,Segoe UI,Optima,Arial,sans-serif" font-weight="bold" font-size="43" id="text34">9</text>
        </g>
        <g id="ace" style="fill:#5c5c4b">
            <text transform="scale(0.56453 1.05741)" font-family="Candara,Calibri,Segoe,Segoe UI,Optima,Arial,sans-serif" font-weight="bold" font-size="43" id="text37">A</text>
        </g>
        <g id="king" style="fill:#5c5c4b">
            <text transform="scale(0.56453 1.05741)" font-family="Candara,Calibri,Segoe,Segoe UI,Optima,Arial,sans-serif" font-weight="bold" font-size="43" id="text40">K</text>
        </g>
        <g id="queen" style="fill:#5c5c4b">
            <text transform="scale(0.56453 1)" font-family="Candara,Calibri,Segoe,Segoe UI,Optima,Arial,sans-serif" font-weight="bold" font-size="43" id="text43">Q</text>
        </g>
        <g id="jack" style="fill:#5c5c4b">
            <text transform="scale(0.56453 1)" font-family="Candara,Calibri,Segoe,Segoe UI,Optima,Arial,sans-serif" font-weight="bold" font-size="43" id="text46">J</text>
        </g>
        <g id="base">
            <path style="fill:#f7f7f6;stroke:#5c5c4b;stroke-width:2.5" d="M 0,0C0,3.78 3.09,6.87 6.87,6.87L159.715,6.87C163.485,6.87 166.575,3.78 166.575,0L166.575,-228.4C166.575,-232.18 163.485,-235.27 159.715,-235.27L6.87,-235.27C3.09,-235.27 0,-232.18 0,-228.4L0,0 z" id="path49"/>
        </g>
        <g id="club" style="fill:#5c5c4b">
            <path d="M3.35,4.66c0-1.81-1.51-3.28-3.38-3.28s-3.38,1.47-3.38,3.28c0,1.81,1.51,3.28,3.38,3.28S3.35,6.47,3.35,4.66z" id="path52"/>
            <path d="M7.71-1.55c0-1.81-1.51-3.28-3.38-3.28S0.95-3.36,0.95-1.55c0,1.81,1.51,3.28,3.38,3.28S7.71,0.26,7.71-1.55z" id="path54"/>
            <path d="M-0.95-1.57c0-0.66-0.2-1.28-0.55-1.8c-0.6-0.89-1.65-1.48-2.83-1.48c-1.87,0-3.38,1.47-3.38,3.28 c0,1.81,1.51,3.28,3.38,3.28S-0.95,0.24-0.95-1.57z" id="path56"/>
            <path d="M3.94-7.94c-1.67,0-2.55,1.36-3.01,2.72C0.47-3.86,0.43-2.5,0.43-2.5h-0.86c0,0-0.16-5.43-3.5-5.44H3.94z" id="path58"/>
            <path d="M-2.32,2.25c1.9-1.9,1.9-4.75,1.9-4.75l0.85-0.01c0,0,0,2.91,1.85,4.76" id="path60"/>
            <path d="M-1.94-3.85c1.9,1.9,4.75,1.9,4.75,1.9v0.85c0,0-2.91,0-4.76,1.85" id="path62"/>
            <path d="M1.87-3.86c-1.9,1.9-4.75,1.9-4.75,1.9v0.85c0,0,2.91,0,4.76,1.85" id="path64"/>
        </g>
        <g id="diamond">
            <path style="fill:#ff6961" d="M0,0C-2.56,0-5.12,0-7.68,0C -6.8053,0.039-6.061,0.605-5.358,1.0728C-3.779,2.264-2.3,3.63 -1.132,5.228C-0.587,6.032 -0.0144,6.936 0,7.94M-7.68,0C-6.57,-0.035 -5.622,-0.7413 -4.776,-1.393C-3.281,-2.648 -1.987,-4.141 -0.895,-5.757C-0.494,-6.426 -0.022,-7.135 0,-7.94C0,-5.293 0,-2.647 0,0M0,-7.94C0.038,-6.758 0.758,-5.734 1.438,-4.82C2.65,-3.310 4.086,-1.974 5.666,-0.857C6.28,-0.474 6.932,-0.0185 7.68,0C5.12,0 2.56,0 0,0M 7.68,0C6.57,0.035 5.622,0.741 4.776,1.392C 3.281,2.648 1.987,4.141 0.895,5.757C0.494,6.426 0.0225,7.135 0,7.94C0,5.293 0,2.647 0,0" id="path67"/>
        </g>
        <g id="heart">
            <path style="fill:#ff6961;" d="M-7.67,3.93c0.01-4.71,5.91-8.14,7.64-11.87c1.75,3.72,7.66,7.12,7.7,11.83c0.01,2.22-1.71,4.03-3.82,4.03C1.73,7.92,0,6.13,0,3.91c0,2.23-1.71,4.03-3.82,4.03C-5.94,7.95-7.66,6.15-7.67,3.93z" id="path70"/>
        </g>
        <g id="spade" style="fill:#5c5c4b" >
            <path d="M3.92-7.93c-1.67,0-2.55,1.78-3.01,3.56c-0.46,1.78-0.5,3.56-0.5,3.56L-0.44-0.8c0,0-0.16-7.13-3.5-7.13H3.92z" id="path73"/>
            <path d="M6.75-0.8C6.74,2.67,1.53,5.19,0,7.93C-1.53,5.18-6.74,2.66-6.75-0.8c0-1.64,1.51-2.97,3.38-2.97C-1.51-3.77,0-2.44,0-0.8c0-1.64,1.51-2.97,3.38-2.97S6.75-2.44,6.75-0.8z" id="path75"/>
        </g>
        <rect style="fill:inherit;fill-opacity:1;fill-rule:evenodd;stroke:none;stroke-width:0.71613282;stroke-linecap:butt;stroke-linejoin:round;stroke-miterlimit:4;stroke-opacity:1" width="131.9648" height="177.42918" x="358.44342" y="761.04138" transform="matrix(1.157448,0,0,1.291938,-72.77354,-239.377)" ry="2.7421434" rx="2.7421434" id="rect3250"/>
        <rect width="131.9648" height="177.42918" rx="2.9805906" ry="2.8864667" x="358.44342" y="761.04138" transform="matrix(1.064852,0,0,1.227341,-33.46908,-184.4809)" style="fill:inherit;fill-opacity:1;fill-rule:evenodd;stroke:#ffffff;stroke-width:1.31317055;stroke-linecap:butt;stroke-linejoin:round;stroke-miterlimit:4;stroke-opacity:1" id="rect3252"/>
        <rect width="131.9648" height="177.42918" rx="0" ry="0" x="358.44342" y="761.04138" transform="matrix(0.901291,0,0,1.107675,35.9519,-82.79633)" style="fill:inherit;fill-opacity:1;fill-rule:evenodd;stroke:#ffffff;stroke-width:1.25206935;stroke-linecap:butt;stroke-linejoin:round;stroke-miterlimit:4;stroke-opacity:1" id="rect3254"/>
        <rect width="131.9648" height="177.42918" rx="0" ry="0" x="358.44342" y="761.04138" transform="matrix(0.829188,0,0,1.052291,66.55439,-35.73366)" style="fill:inherit;fill-opacity:1;fill-rule:evenodd;stroke:#ffffff;stroke-width:1.33928394;stroke-linecap:butt;stroke-linejoin:round;stroke-miterlimit:4;stroke-opacity:1" id="rect3256"/>
        <g id="back" transform="translate(-333.89999,-736.02999)">
            <use xlink:href="#base" x="335.14999" y="972.54999" width="100%" height="100%"/>
            <use xlink:href="#rect3250"/>
            <use xlink:href="#rect3252"/>
            <use xlink:href="#rect3254"/>
            <use xlink:href="#rect3256"/>
        </g>
    </defs>
</svg>