<?xml version="1.0" encoding="UTF-8" standalone="no"?>
<!-- Created with Inkscape (http://www.inkscape.org/) -->

<svg  fill="#5c5c4b" 
   xmlns:dc="http://purl.org/dc/elements/1.1/"
   xmlns:cc="http://creativecommons.org/ns#"
   xmlns:rdf="http://www.w3.org/1999/02/22-rdf-syntax-ns#"
   xmlns:svg="http://www.w3.org/2000/svg"
   xmlns="http://www.w3.org/2000/svg"
   version="1.1"
   width="360"
   height="540"
   id="svg2999">
  <defs
     id="defs8700" />
  <metadata
     id="metadata3004">
    <rdf:RDF>
      <cc:Work
         rdf:about="">
        <dc:format>image/svg+xml</dc:format>
        <dc:type
           rdf:resource="http://purl.org/dc/dcmitype/StillImage" />
        <dc:title></dc:title>
      </cc:Work>
    </rdf:RDF>
  </metadata>
  <g
     transform="translate(0,-512.36218)"
     id="layer1">
    <g
       id="g3101">
      <rect
         width="359"
         height="539"
         ry="29.944447"
         x="0.5"
         y="512.86218"
         id="rect6472"
         style="fill:#f7f7f6;stroke:#5c5c4b;stroke-width:1;stroke-miterlimit:4;stroke-opacity:1;stroke-dasharray:none" />
      <g
         transform="matrix(1.0359193,0,0,0.99755171,-3.2832884,-0.36335616)"
         id="g9607">
        <path
           d="m 249.30423,1002.3639 c -7.23524,-2.78189 -15.88936,-6.76437 -21.04616,-10.00493 1.06727,3.97248 1.5401,4.38118 2.30704,7.45964 -2.10958,-1.3413 -7.34855,-2.8714 -11.06188,-4.1923 -1.87585,-0.66727 -1.26746,-0.46287 -5.66479,-1.88504 2.30894,5.4841 3.71113,10.68593 4.70679,13.97053 -3.82179,-1.866 -13.35739,-5.8913 -17.20517,-7.7038 -3.84778,-1.81259 -8.71141,-3.97663 -12.63277,-5.62672 0.71567,2.33238 0.97545,3.00242 1.42536,4.51621 0.42568,1.43231 1.03101,3.69331 1.20509,4.31931 -0.46296,-0.1113 -2.94491,-0.9014 -4.45705,-1.146 -3.93025,-0.636 -7.49374,-1.2777 -11.90604,-0.8224 -4.41231,0.4553 -8.8004,1.535 -12.99947,2.7764 0.2645,-3.4671 2.48243,-6.49533 2.81912,-9.74741 -4.8755,1.56438 -14.03015,5.15769 -18.71888,7.25201 -4.68873,2.0943 -9.23936,4.4886 -13.56246,7.2526 0.68452,-2.8226 1.98139,-5.3869 3.4631,-7.8656 1.48171,-2.47872 3.14825,-4.87195 4.5721,-7.35261 -3.66081,0.39268 -6.82196,1.29662 -10.09064,2.46084 -3.37221,1.2011 -7.48177,3.38214 -9.72294,4.63217 0.50704,-1.93033 0.23602,-2.46055 1.38546,-6.04927 -2.70333,1.01367 -2.08314,0.60642 -5.5385,2.54094 -3.45535,1.93453 -6.52122,3.54063 -9.94003,4.93003 -4.55154,1.8497 -9.255762,3.3244 -14.004265,4.5057 -4.748503,1.1812 -12.028066,2.6639 -16.976374,2.6041 1.997074,-4.5816 1.811766,-6.9019 2.447,-9.41598 -3.921683,1.88688 -8.651017,4.52488 -12.682692,6.18038 -4.031675,1.6555 -8.790688,2.9647 -13.17887,3.4661 0.476902,-3.1659 0.815521,-5.652 1.566969,-8.3922 0.815709,-2.97456 2.847549,-5.95548 3.175139,-8.67132 -0.766187,-0.16446 -1.400158,-0.24806 -2.301646,-0.1603 -0.901487,0.0878 -2.070491,0.3469 -3.906741,0.8679 0.368044,-1.71487 1.192724,-4.01208 2.159549,-6.44282 0.966824,-2.43074 2.075794,-4.99501 3.012419,-7.24401 0.564654,-1.35583 1.179269,-2.46495 1.802147,-3.6817 0.622879,-1.21674 1.254022,-2.5411 1.851733,-4.32742 -2.005127,0.0517 -3.066779,-0.13006 -4.112271,-0.21142 -1.045493,-0.0814 -2.074826,-0.0623 -4.015316,0.39127 0.991554,-1.37876 2.177954,-3.12002 3.410142,-4.95404 1.232189,-1.83401 2.510166,-3.76079 3.684874,-5.51061 0.580707,-0.86501 2.41245,-2.85222 4.355049,-4.8715 1.942599,-2.01929 3.996053,-4.07065 5.020182,-5.06397 0.265619,-0.25763 -0.413633,-0.43931 -1.437835,-0.62096 -1.024203,-0.18164 -2.393355,-0.36324 -3.507534,-0.6207 0,0 0.65603,-0.97969 1.430629,-2.23059 2.172833,-4.45879 5.745062,-8.2749 8.936705,-11.16611 2.495359,-2.25321 5.089308,-4.42821 7.386198,-6.83889 -1.431081,-0.48393 -4.03888,-0.96469 -5.232692,-1.18166 0.968342,-1.37416 2.129026,-3.13818 3.358698,-4.56448 1.43036,-1.65908 2.509363,-2.54155 4.649369,-4.61498 2.140006,-2.07343 7.132801,-4.34516 5.832541,-7.16969 -0.772552,-1.6782 -3.374515,-1.45753 -5.35883,0.14686 -1.984315,1.6044 -3.514936,3.28441 -5.000667,5.18291 -1.206419,1.54159 -2.531335,3.09442 -3.138861,4.99103 -1.831071,-1.10192 -1.54657,-1.40592 -2.824816,-1.76576 -1.444055,2.62149 -2.224092,8.67705 -3.401155,12.99673 -0.445968,1.63665 -0.806819,3.06246 -1.387026,4.89514 -0.8681,-0.6411 -2.415442,-0.67028 -4.310912,-1.92818 -1.712512,3.43378 -2.634315,7.24649 -3.780959,10.94428 -1.146645,3.69779 -2.518131,7.28065 -5.13001,10.25473 -2.166715,-3.34065 -3.116114,-7.29443 -3.598174,-11.3725 -0.482061,-4.07807 -0.496784,-8.28042 -0.794148,-12.11823 -1.294267,0.52933 -1.89084,0.89667 -2.369302,1.22479 -0.478462,0.32811 -0.838814,0.617 -1.66064,0.98941 0.02137,-0.81318 0.361225,-2.50889 0.714018,-4.18493 0.352794,-1.67605 0.77395,-3.1907 1.295463,-4.74162 0.546619,-1.62558 0.777291,-2.48341 1.916054,-4.76625 1.138763,-2.28285 2.345945,-4.62489 2.830381,-5.7961 -1.07548,-0.20515 -1.313791,-0.2054 -1.57988,-0.198 -0.266088,0.007 -0.559954,0.0224 -1.746543,-0.15211 0.715743,-2.36979 2.13526,-4.81226 3.89302,-7.11062 1.75776,-2.29835 3.853763,-4.4526 5.922479,-6.24597 2.68482,-2.32746 5.712957,-4.17303 8.890659,-5.7516 3.177703,-1.57858 6.50497,-2.89017 9.788051,-4.14969 -2.313481,-1.60228 -2.057962,-2.42512 -4.604608,-4.15387 1.339906,-0.9791 3.764202,-1.96455 6.939847,-3.1424 -2.456903,-1.54072 -3.381983,-2.51332 -8.707896,-5.50301 -5.504336,-3.08985 -12.893464,-4.99793 -14.528563,-5.76136 1.149873,-0.52322 2.762491,-1.40288 4.372883,-2.44623 1.610392,-1.04334 3.218558,-2.25035 4.359527,-3.42828 -2.313245,-1.88186 -5.27402,-3.68134 -8.421627,-5.44473 -3.147606,-1.76339 -6.482043,-3.49071 -9.542609,-5.22826 5.213235,-2.6325 11.267754,-4.54019 17.453316,-5.50677 6.185562,-0.96658 12.502167,-0.99205 18.239575,0.13989 -0.979297,-1.70599 -1.433712,-2.40957 -1.767163,-3.09967 -0.333451,-0.6901 -0.545937,-1.36672 -1.041376,-3.01879 1.663612,0.47175 3.662408,0.84209 5.684817,1.34087 2.022409,0.49878 4.068433,1.126 5.8265,2.11147 4.720409,2.646 9.223428,5.47143 13.351398,8.94296 4.12797,3.47152 7.8809,7.58914 11.10114,12.81949 1.43296,-3.66167 2.18562,-5.31927 4.32428,-7.81007 1.505,2.77711 4.21484,7.45991 5.35676,10.39661 1.14192,2.9367 2.15537,5.92641 3.14651,8.91557 3.56697,-1.43207 5.30252,-2.90147 6.02126,-4.5415 0.71874,-1.64002 0.42068,-3.45068 -0.0796,-5.56527 3.15956,0.72695 5.63462,1.87888 8.1177,2.73902 2.48308,0.86014 5.17921,1.47565 7.73405,0.98824 2.25584,-0.43037 3.7815,-1.45211 6.08861,-3.33697 -1.10447,-0.6726 -3.636,-1.41484 -6.09771,-2.14163 -2.46171,-0.72678 -2.69439,-0.8384 -5.67877,-2.0489 2.36643,-2.41472 4.77779,-3.43901 7.36913,-4.45061 2.04432,-0.80338 4.3872,-1.38205 6.65491,-1.80311 2.2677,-0.42106 4.46022,-0.68449 6.20381,-0.85741 1.58866,-2.93668 3.02151,-6.03672 4.71511,-8.67914 1.6936,-2.64242 3.64793,-4.82724 6.27956,-5.93349 2.57732,0.8916 4.55283,3.23891 6.14901,5.9485 1.59618,2.70958 2.81303,5.78144 3.87301,8.1221 2.68246,0.65015 6.52066,1.16971 10.21602,2.01039 3.69535,0.84068 7.24786,2.00249 9.3589,3.93713 -1.9494,1.41886 -3.82079,2.28866 -5.87471,3.09252 -2.67241,1.04592 -5.58363,1.45217 -8.29637,2.21485 0.93712,0.61185 3.92305,3.00396 6.238,3.30604 3.38872,0.44218 7.14155,-1.07952 9.99548,-2.3437 2.85393,-1.26418 4.19413,-1.99675 6.95879,-2.30247 -1.68793,2.91681 -3.37071,4.39122 -2.44475,6.06792 1.08229,1.95977 3.93589,2.87156 5.87535,3.47654 -0.4581,-2.23817 -0.86834,-3.04893 -0.56586,-4.77386 0.30248,-1.72493 0.51776,-3.38051 1.05191,-4.99003 0.67812,-2.04333 1.54672,-3.69777 2.70561,-5.84166 1.15889,-2.14389 2.50159,-4.19902 3.80845,-5.30908 1.16273,1.89308 1.8558,3.2723 2.49061,4.72524 0.63481,1.45294 1.21136,2.97959 2.14104,5.16753 1.76609,-4.34893 4.1215,-8.07785 6.86859,-11.23774 2.74709,-3.15989 5.88585,-5.75075 9.21863,-7.82358 3.33278,-2.07282 6.85958,-3.62761 10.38276,-4.71534 3.52317,-1.08773 7.04271,-1.70841 10.36097,-1.91303 -0.38825,0.76428 -0.62697,1.47045 -0.79819,2.23038 -0.17123,0.75993 -0.27495,1.57361 -0.39319,2.55289 0.6958,0.25256 2.91538,0.0135 5.50487,-0.19487 2.58949,-0.20834 5.54889,-0.38593 7.72432,-0.0104 3.37752,0.58308 6.80854,1.3648 10.09745,2.51034 3.28891,1.14554 6.43572,2.65491 9.24481,4.69326 1.3836,1.00398 2.6643,2.12154 3.77079,3.43918 1.10649,1.31764 2.03878,2.83536 2.72555,4.63966 -1.68709,0.16368 -3.90036,0.58483 -6.22547,1.14487 -2.32512,0.56004 -4.76207,1.25895 -6.89653,1.97814 -0.91455,0.30815 -1.80369,0.65541 -2.68331,1.04516 -0.87963,0.38976 -1.74974,0.82201 -2.62624,1.30016 0.59911,0.67359 1.21994,1.39771 1.84977,2.13105 0.62983,0.73334 1.26866,1.47591 1.90375,2.18639 0.56605,0.63324 1.25966,1.27256 1.89577,1.90267 0.6361,0.63011 1.2147,1.25102 1.55072,1.84744 -1.23388,0.65698 -3.33559,1.26731 -5.65091,1.87784 -2.31532,0.61052 -4.84424,1.22123 -6.93255,1.87895 -2.19113,0.6901 -3.99405,0.90247 -5.98371,1.37845 -1.98965,0.47598 -4.16603,1.21558 -7.10407,2.96012 1.99068,0.89799 3.71005,1.75557 5.37843,3.26853 -1.11783,1.24743 -2.28951,2.52406 -3.38724,3.54356 4.39576,1.63628 8.46983,2.71949 11.26553,3.8951 2.79569,1.17561 5.17114,2.44361 7.88589,4.44944 2.70799,2.00084 5.67809,4.61283 8.18276,7.31705 2.50467,2.70421 4.54391,5.50066 5.39019,7.8704 -1.27679,0.0179 -2.52523,0.27514 -3.49119,0.75686 1.69458,3.51334 2.94995,5.64923 3.79841,8.71352 0.98234,3.54782 1.57237,8.91957 1.43426,10.97453 -2.61928,-1.66289 -2.90389,-1.25419 -4.78174,-1.73757 0.095,2.93347 0.14342,5.23352 0.0325,7.8465 -0.11851,2.7916 -0.30444,5.36284 -0.74491,8.34711 -0.44043,2.98428 -1.20918,5.89813 -2.43301,8.60791 -2.92837,-3.64824 -4.67354,-7.94786 -6.02217,-12.42782 -1.34863,-4.47997 -2.30072,-9.14027 -3.64292,-13.50989 -0.95451,0.72455 -1.76442,1.8326 -2.40844,2.38471 -0.54724,-0.75939 -1.49312,-2.55918 -2.38655,-4.47038 -0.89343,-1.9112 -1.73441,-3.93381 -2.07185,-5.13885 -0.33745,-1.20503 -0.72259,-3.01114 -1.09278,-4.69263 -0.37019,-1.68148 -0.85206,-4.55438 -1.12968,-5.26093 -0.58215,0.99829 -1.02196,2.41933 -1.40887,3.36334 -0.59467,-1.40652 -1.67936,-3.64154 -3.13796,-5.82002 -1.4586,-2.17848 -3.10494,-4.37805 -5.38145,-5.48085 -1.31575,-0.63738 -3.24431,-1.31734 -4.33457,-0.43872 -1.09026,0.87862 -0.92594,2.93265 -0.56708,4.34632 0.5856,2.30691 2.24564,4.08795 4.17157,5.69541 1.92592,1.60747 5.24591,5.46367 6.47704,7.49495 -1.06594,0.90094 -2.1632,1.07932 -3.77302,1.81737 2.02555,1.99727 3.19903,2.81278 4.75023,4.27579 2.47303,2.33243 4.87109,4.76008 7.26105,7.17406 2.38996,2.41399 5.68965,6.42293 7.01467,9.62991 -1.92855,1.03271 -3.93349,0.31375 -5.69887,1.1372 2.22799,2.36479 7.93673,7.4768 11.2556,11.81443 1.28511,1.67959 2.39588,3.95644 3.3069,5.44344 -1.14272,0.53849 -4.37353,0.1082 -5.11423,0.57925 1.67764,3.42889 3.1888,6.9109 4.39631,10.48642 1.20751,3.57552 2.11138,7.24456 2.57442,11.04749 -1.73699,0.43626 -3.58277,-0.13959 -4.58614,0.0788 1.76749,7.05799 2.98269,12.17654 4.12738,19.04124 -7.74199,-2.5761 -10.74138,-3.7307 -16.02323,-5.8467 -4.10291,-1.6437 -8.52383,-4.09409 -12.15944,-5.31617 0.75817,4.40737 1.99051,8.69967 3.73729,12.65317 -13.20838,-4.3508 -17.71019,-4.5524 -26.24752,-7.8349 z"
           id="path8973"
           style="fill:#ff6961;stroke:none" />
        <path
           d="m 270.20459,1005.6746 c -0.0887,-2.5185 -3.51887,-12.83757 -3.77901,-15.7282 5.30867,2.12284 11.65484,6.02165 17.7151,8.46039 3.51474,1.41438 6.76813,2.93741 10.77467,3.56361 -0.18814,-3.3952 -1.07217,-6.55911 -2.30498,-9.60362 -1.23281,-3.04452 -2.81441,-5.96963 -4.39771,-8.88719 4.48466,1.15033 3.83482,0.99581 8.54157,1.57984 -1.2698,-2.97399 -3.06678,-9.64059 -4.42501,-12.56384 -1.35824,-2.92325 -2.97019,-5.70097 -5.25481,-8.09283 1.3996,-1.00392 4.26968,-0.15939 5.40136,-0.32051 -0.23746,-1.82102 -1.64858,-3.11204 -2.74708,-4.4574 -1.8999,-2.32686 -4.10961,-4.29521 -6.54603,-6.12676 -2.43643,-1.83155 -4.76122,-3.65871 -5.87622,-6.10045 3.36393,-0.12973 4.58286,-0.18961 7.80346,-0.62588 -1.79966,-3.31452 -4.8527,-5.93416 -7.53831,-8.64074 -1.95633,-1.97161 -3.98005,-3.87529 -6.22246,-5.51088 -2.2424,-1.63559 -4.54132,-3.20543 -6.56148,-5.11636 3.4011,-1.05435 2.95304,-1.5909 5.30554,-2.51291 -1.6291,-2.00136 -6.8628,-6.72673 -8.01275,-8.78319 -1.46513,-1.85342 -2.56172,-4.12657 -2.6835,-6.24999 -0.12177,-2.12342 1.27977,-4.6134 3.16539,-5.35157 2.6141,-1.02335 5.78008,0.75595 8.00821,2.5662 2.22813,1.81026 4.12856,4.2413 6.04202,6.29088 1.27797,-1.44863 1.70589,-2.00528 2.38186,-3.39234 0.73928,1.24501 2.15075,6.09332 2.60361,9.19426 0.61377,4.20284 2.97657,9.41082 4.19174,11.98593 1.08852,-0.71497 2.85479,-2.74819 3.9523,-3.1617 0.24373,3.91634 1.22881,9.52562 2.21667,13.10354 0.98787,3.57792 3.04672,8.56291 4.1248,12.05262 1.77856,-5.36996 1.36731,-9.77725 1.48006,-14.70389 0.0643,-2.811 -0.40044,-6.36302 -0.45974,-8.42185 2.6826,0.82614 3.07693,0.35138 4.99314,0.87178 -0.71428,-2.99408 -1.03403,-3.91912 -2.03428,-6.14126 -2.0005,-4.44429 -5.59562,-9.78155 -6.60898,-11.70106 1.47709,-0.19226 2.09645,-0.14525 2.61871,-0.1261 0.52225,0.0191 0.94741,0.0104 2.03607,-0.29329 -2.76519,-2.91464 -6.52275,-5.94397 -10.67789,-8.69824 -4.15515,-2.75427 -8.70789,-5.23349 -13.06346,-7.04794 -2.1684,-0.90331 -4.46003,-1.37206 -6.78247,-1.73217 -2.32244,-0.36011 -4.67569,-0.61158 -6.96733,-1.08034 1.42486,-1.08064 2.427,-1.89473 3.0821,-2.55593 0.65509,-0.6612 1.64059,-1.59162 2.35471,-2.2483 -0.78498,-0.6673 -2.55672,-1.51713 -3.94256,-2.14871 -1.38584,-0.63158 -3.33423,-1.74843 -4.51766,-2.48076 1.08421,-0.6112 3.23421,-1.4532 5.66633,-2.29969 2.43211,-0.84649 5.14634,-1.69746 7.35901,-2.32662 2.6684,-0.75874 4.8116,-1.25732 7.24747,-1.75544 2.43586,-0.49812 5.1644,-0.99577 9.00349,-1.75265 -0.86196,-1.2556 -2.3103,-2.48726 -3.87104,-3.71433 -1.56074,-1.22707 -3.23388,-2.44955 -4.54543,-3.68679 2.09952,-1.58026 5.62868,-2.47115 9.39363,-3.28875 3.76495,-0.81759 7.7657,-1.56188 10.80837,-2.84896 -1.02451,-1.64723 -3.10525,-3.48663 -5.56369,-5.12266 -2.45844,-1.63604 -5.29458,-3.06871 -7.8299,-3.90252 -2.83118,-0.93111 -5.81812,-1.20079 -8.82896,-1.18972 -3.01084,0.0111 -6.04558,0.3029 -8.97234,0.49483 -1.26433,0.01 -2.638,0.4097 -4.07456,0.85355 -1.43657,0.44385 -2.93603,0.93181 -4.45197,1.11818 1.05845,-1.71742 1.4097,-2.74775 1.60301,-3.61742 0.19332,-0.86967 0.22869,-1.57868 0.65537,-2.65348 -1.20137,0.25753 -3.17487,0.7046 -5.26867,1.35952 -2.0938,0.65493 -4.30791,1.51771 -5.99049,2.60664 -2.98024,1.92875 -5.80755,4.25222 -8.3361,6.87069 -2.52856,2.61847 -4.75837,5.53194 -6.5436,8.64071 -1.6145,2.28436 -2.33604,4.8091 -2.70773,7.42802 -0.3717,2.61892 -0.39354,5.33202 -0.60862,7.9931 -0.81429,-2.88533 -1.67292,-5.75753 -2.55105,-8.62386 -0.87813,-2.86632 -1.77576,-5.72678 -2.66808,-8.58864 -1.6357,2.04779 -2.67542,3.88606 -3.38813,5.65432 -1.49629,3.8911 -1.50104,8.77871 -1.49115,11.58855 -1.39549,0.23031 -4.0651,-1.50331 -6.04365,-2.39353 -1.33713,-0.60163 -3.01306,-0.81027 -3.93048,-1.9886 -0.69825,-0.89683 -1.62071,-1.82107 -0.80388,-3.36124 -3.42648,1.35079 -6.60651,2.20428 -9.72184,2.2075 -3.11532,0.003 -6.41576,-1.41254 -9.33364,-2.89416 -1.62266,-0.82394 -3.39189,-2.13149 -4.41437,-3.26765 0.65446,0.0833 3.63542,-0.66621 6.74187,-1.53968 3.10644,-0.87346 6.33838,-1.87082 7.49479,-2.28308 -1.23863,-1.35851 -2.63084,-1.67273 -4.05964,-2.25175 -1.98525,-0.80452 -4.14475,-1.50812 -6.18758,-1.66468 -2.04283,-0.15656 -4.02327,-0.10448 -5.81325,-0.41286 -0.44093,-2.41523 -1.65718,-5.58164 -3.1715,-8.34465 -1.51431,-2.76301 -3.32669,-5.1226 -4.95984,-5.9242 -2.09191,0.99901 -3.72954,3.32763 -5.20788,6.02786 -1.47834,2.70023 -2.79737,5.77205 -4.25209,8.25746 -2.86189,0.87491 -6.02233,1.26044 -9.13002,1.8201 -3.10768,0.55966 -6.16262,1.29345 -8.81351,2.8649 1.74443,1.16546 4.55385,1.73657 7.1548,2.27825 2.60094,0.54169 4.99341,1.05395 5.90391,2.10173 -2.78057,1.54785 -5.70357,3.60569 -8.773,5.00076 -3.06943,1.39507 -5.63728,1.43866 -8.5,1.32393 -2.03281,-0.0815 -3.62144,-0.92635 -5.94862,-1.4204 -0.0577,1.84019 -0.88307,2.53665 -1.72256,3.52243 -1.38353,1.62462 -2.7754,2.19925 -5.19493,3.6286 -2.41952,1.42935 -2.60409,1.99826 -4.45252,2.96377 -0.43981,-2.52244 -2.40004,-9.16659 -3.47931,-11.59297 -1.07927,-2.42638 -2.42915,-4.68301 -3.95139,-6.52646 -0.72348,2.99587 -1.16692,6.01665 -1.39935,9.0562 -0.23243,3.03954 -0.25385,6.09786 -0.1333,9.1688 l -1.89227,-1.00838 c 0.0863,-7.12363 -2.89888,-13.62058 -6.96979,-19.10433 -4.0709,-5.48375 -9.22759,-9.95429 -13.484457,-13.0251 -0.925771,-0.80891 -2.226103,-1.5107 -3.7505,-2.12083 -1.524397,-0.61013 -3.272859,-1.12859 -5.094889,-1.57083 0.114269,0.40115 0.813688,1.58423 1.550227,2.89969 0.736539,1.31547 1.510199,2.76334 1.772948,3.69406 -1.317801,-0.40921 -3.797489,-1.19853 -6.193729,-1.87549 -2.39624,-0.67696 -4.709032,-1.24156 -5.693043,-1.20134 -3.420371,0.0513 -5.791658,-0.0421 -7.89009,-0.0521 -2.098432,-0.0101 -3.924009,0.0632 -6.252961,0.44768 -1.796398,0.29656 -3.554084,0.54502 -5.29194,0.99804 -1.737857,0.45302 -3.455883,1.11059 -5.172963,2.22537 2.66579,1.25089 6.140234,3.17175 9.614679,5.0926 3.474444,1.92086 6.94889,3.84172 9.614681,5.0926 -0.730167,0.97699 -2.237602,1.84078 -3.869681,2.67949 -1.63208,0.83872 -3.388805,1.65236 -4.617552,2.52907 3.697906,2.51978 9.863085,4.26587 14.672553,6.67594 4.225195,2.11728 9.722919,4.52565 12.444148,6.83028 -2.540553,0.71171 -6.924678,2.24072 -8.592758,2.90252 1.354795,1.26152 2.889988,2.52211 4.257282,3.17815 -2.116489,0.93301 -3.099917,0.95369 -4.676563,1.31749 -1.661054,0.38327 -3.391169,0.42878 -5.028782,0.90917 -2.368599,0.69483 -4.630792,1.75396 -6.863268,2.83202 -2.223116,1.07354 -4.430819,2.21636 -6.48259,3.61068 -2.183289,1.4837 -4.308749,3.10839 -6.151887,5.02627 -1.852077,1.92718 -3.839959,4.4011 -4.851112,6.4296 1.238339,-0.079 1.555195,-0.0144 2.746272,0.081 -0.896146,1.66967 -2.182353,4.36254 -3.236227,6.56336 -0.789283,1.64827 -1.690151,3.24944 -2.311647,4.97341 -0.551638,1.53018 -1.080809,2.9566 -1.244179,4.72834 2.272115,-1.19895 1.58822,-0.67111 3.089238,-1.47583 -0.01042,1.74401 -0.414984,5.67583 -0.499062,8.51965 -0.07631,2.5811 -0.143756,5.19627 -0.0047,7.74696 0.13903,2.55068 0.654874,5.01659 2.256159,7.23831 1.708116,-3.33251 2.600728,-6.9299 3.417589,-10.55328 0.816861,-3.62338 1.557972,-7.27276 2.963087,-10.70922 1.985575,1.60315 3.135219,2.11581 5.292655,3.41449 0.645999,-2.97424 1.218177,-7.68728 2.414726,-11.35993 0.840352,-2.57935 2.369833,-5.41346 3.316152,-7.40558 1.090265,0.0319 2.320654,1.00613 3.581116,1.24713 1.938014,-1.93591 3.823831,-4.40439 6.01288,-6.26041 2.189048,-1.85602 5.335306,-3.75762 7.832265,-2.5857 1.555588,0.7301 2.243143,3.10593 2.073683,4.87426 -0.175076,1.82694 -1.841378,3.16461 -3.055796,4.49542 -1.342669,1.47136 -2.581485,2.08303 -4.59421,3.76671 -2.012724,1.68368 -2.499448,2.61521 -4.218936,4.35134 4.260453,0.7622 4.264694,1.7218 6.368571,2.29729 -2.070568,1.69995 -5.913992,5.14769 -8.815268,7.78893 -1.846209,1.68074 -3.925017,3.14193 -5.466504,5.12688 -1.518525,1.95539 -2.712684,4.24728 -3.61317,6.53642 l 5.041131,1.5388 c -0.180883,0.46323 -6.816274,5.92877 -10.447417,10.08086 -2.353126,2.70612 -4.619947,6.33048 -6.775354,9.22398 1.568477,0.12991 2.61873,0.043 3.925702,-0.0248 1.473336,-0.0764 2.754884,-0.43118 4.40618,-0.43007 -0.653039,2.24958 -1.833555,4.62129 -2.920091,6.8478 -1.190228,2.439 -2.740903,4.6746 -3.932848,7.11269 -0.917784,1.8773 -1.925529,4.3293 -2.471144,5.77215 2.464795,0.79506 4.477458,-0.20009 8.115992,-0.41286 -0.80123,2.398 -3.021832,6.93224 -3.812857,9.17408 -1.276887,2.33676 -2.448174,6.35709 -2.218421,7.83059 6.114471,-1.7453 12.445918,-4.38858 18.456444,-8.25969 4.149437,-2.67985 6.720906,-4.31267 11.24901,-6.29513 -0.706227,2.85466 -1.770816,4.83552 -2.488355,7.31064 -0.745745,2.57241 -1.071503,4.44878 -1.883263,7.81908 4.479665,0.1695 8.85545,-0.6851 13.154169,-1.9377 4.298725,-1.2526 8.594785,-2.5126 12.691775,-4.32522 2.83762,-1.25544 5.54598,-2.87434 8.17309,-4.50945 2.62711,-1.63512 4.95907,-3.72343 7.08278,-5.98893 2.04831,-2.18506 3.69861,-4.74431 5.37671,-7.24675 1.28622,-1.91803 1.5893,-2.63595 3.58724,-5.94045 l 0.70774,-0.0896 c -1.60793,3.44284 -2.51727,6.66957 -3.6754,10.23516 -0.97447,2.96434 -2.04856,5.04819 -2.67519,8.09885 2.53398,-0.32653 5.15984,-1.5001 9.80974,-2.94941 4.6499,-1.44931 8.64694,-1.53281 11.74026,-1.80281 -1.74253,1.90089 -4.34042,8.74867 -4.64825,10.41516 1.93144,-1.30191 4.59944,-2.2799 6.95455,-3.28626 2.99157,-1.27831 5.69097,-2.14255 9.10342,-3.4904 3.41245,-1.34784 8.17617,-2.45761 11.78325,-2.67027 -1.08201,1.73013 -1.38974,2.95166 -1.90639,4.50054 -0.35701,1.07029 -0.54519,2.00835 -0.8177,3.29072 0.69416,-0.21523 2.61039,-0.9857 3.9701,-1.24169 0.98213,-0.1849 1.99005,-0.17407 2.98764,-0.20547 1.15336,-0.0363 2.3114,-0.076 3.46161,0.0199 1.06214,0.0886 2.07546,0.25197 3.15866,0.51144 -0.43864,-1.36246 -1.1011,-2.8188 -1.56652,-4.26008 -0.30269,-0.93734 -0.59565,-1.51935 -0.79578,-2.84867 0.57093,-0.002 2.28015,0.15959 3.39821,0.38908 2.18501,0.4485 5.39717,1.73016 6.42154,1.92085 3.28476,1.17202 6.49852,2.51809 9.68539,3.92838 3.18687,1.41028 8.4242,3.78423 11.60138,5.21308 -0.65022,-2.05349 -1.58205,-3.4729 -2.5092,-4.94669 -0.92715,-1.4738 -2.19583,-5.16066 -2.48105,-6.53224 11.07436,2.00409 12.17918,3.23649 17.6728,5.19039 -2.14195,-7.69342 -5.3276,-16.0257 -7.75137,-22.31446 l 1.21404,0.5262 c 1.1668,2.51047 3.04322,5.77537 4.64972,7.95075 1.6065,2.17538 3.58192,4.13174 5.62683,5.91087 3.86877,3.36594 8.0409,6.4033 12.46521,8.92413 4.50637,2.56758 9.35869,4.45 14.20202,6.23615 4.95857,1.8287 8.27734,2.5629 15.16012,4.5687 z"
           id="path8971"
           style="fill:#f7f7f6;stroke:none" />
        <path
           d="m 253.35799,992.40826 c -2.51795,-2.21474 -2.91899,-2.66122 -7.28754,-6.9576 l 1.1716,-0.59448 c 0,0 6.23184,5.35716 9.29403,8.10131 3.21342,2.87967 9.52569,8.77501 9.52569,8.77501 l -0.35211,0.6737 c -4.16328,-3.1045 -8.3683,-6.49425 -12.35167,-9.99794 z"
           id="path8969"
           style="fill:#ff6961;stroke:none" />
        <path
           d="m 61.853282,999.35101 c 0.638788,-1.58328 1.528069,-3.0497 2.350585,-4.54063 1.504374,-2.72691 2.985017,-5.4794 4.723751,-8.05069 0.761291,-1.12581 1.774676,-2.42413 2.489827,-3.21567 l 0.926412,0.63327 c -1.901949,3.68676 -4.293117,7.53782 -6.673054,11.1476 -1.005189,1.52463 -2.562797,3.21098 -3.206808,4.43052 z"
           id="path8967"
           style="fill:#ff6961;stroke:none" />
        <path
           d="m 89.530737,997.25351 c 1.609033,-1.53404 3.180779,-2.3105 4.929075,-3.6771 3.437948,-2.59909 6.920158,-5.13899 10.415608,-7.66002 0.32826,0.31882 0.65652,0.63765 0.98478,0.95647 -1.01762,1.14582 -3.40679,2.85612 -5.19468,4.16529 -2.882093,2.1104 -5.173788,3.85332 -8.902447,5.936 -0.97549,0.5188 -1.9738,0.9928 -2.95853,1.49349 0.153565,-0.24133 0.572629,-0.9728 0.726194,-1.21413 z"
           id="path8965"
           style="fill:#ff6961;stroke:none" />
        <path
           d="m 289.77131,996.88608 c -1.50912,-2.2754 -3.94569,-5.19038 -6.01582,-7.70137 -1.1705,-1.41977 -3.61904,-4.1611 -3.61904,-4.1611 0.26578,-0.25814 0.53156,-0.51628 0.79734,-0.77442 0,0 2.22222,2.2038 3.22037,3.41322 2.5514,3.09143 5.58235,7.21588 7.04275,9.7828 z"
           id="path8963"
           style="fill:#ff6961;stroke:none" />
        <path
           d="m 88.398492,930.18156 c 1.498228,-3.94888 3.207863,-7.96258 5.789511,-11.2706 3.260892,-4.17837 7.288667,-7.26921 11.896677,-10.37823 0.27511,3.83425 -0.23658,7.81427 -0.43441,11.42322 -0.20501,3.73993 0.0327,7.49197 0.049,11.23795 2.05339,-2.22578 4.10679,-4.45156 6.16019,-6.67734 1.55348,1.61516 3.21927,3.14098 4.45173,5.00186 1.6547,2.49843 2.95112,5.25367 3.85095,8.12355 1.13011,3.60434 1.33324,7.98656 1.87529,11.20376 -0.99487,-0.10897 -1.27122,-0.10831 -2.33558,-0.16658 3.51,8.1431 6.94264,17.22556 8.2375,26.05225 -2.75108,-0.18186 -5.19823,-1.74708 -7.76151,-2.6744 -1.80232,6.40321 -1.48908,7.47219 -3.34943,13.89741 -1.10349,2.38311 -2.20699,4.76622 -3.31048,7.14932 -1.0802,-2.65654 -2.95795,-5.58146 -4.36341,-8.41266 -2.06221,-4.15418 -3.77402,-7.07352 -5.96889,-12.5772 -1.68138,0.43885 -1.87123,0.58066 -2.74435,1.01549 -1.037563,0.51672 -2.035987,1.07668 -2.928115,1.87563 -0.886489,-1.57378 -1.086973,-2.55695 -1.455538,-3.89215 -1.017899,-3.68754 -1.67322,-7.48382 -2.063585,-11.2893 -0.30947,-3.01688 -0.28323,-6.06364 -0.215143,-9.09558 0.04272,-1.90209 0.260657,-3.79621 0.390985,-5.69431 -2.642417,-0.10257 -5.32712,0.12096 -8.519542,0.0348 0.436492,-5.74855 1.076801,-10.4817 2.74815,-14.88687 z"
           id="path8961"
           style="fill:#ff6961;stroke:none" />
        <path
           d="m 103.5389,913.98114 c -2.56291,1.4048 -3.702424,2.91679 -5.237618,4.6864 -2.620591,3.02074 -5.061919,6.28812 -6.65764,9.98033 -1.839132,4.25542 -2.830049,8.8436 -3.17539,13.59895 2.383779,-0.19227 6.801783,-0.77547 8.723629,-1.07054 -0.34227,1.32459 -1.104366,3.70358 -1.331175,5.61308 -0.377968,3.1821 -0.286289,6.41878 -0.03458,9.61334 0.378749,4.80683 1.144167,9.59476 2.316845,14.27844 2.393629,-1.68229 3.417319,-2.43665 5.917899,-3.375 2.25562,6.55111 3.88989,9.40452 5.79238,13.20066 l 3.70339,7.09726 c 1.15526,-2.93112 1.58413,-4.89217 2.15772,-7.39985 0.90709,-3.9657 1.02127,-7.19469 2.02014,-12.04771 2.21377,0.47684 4.83523,1.94618 6.93026,2.79006 0.20519,-0.99903 -0.28414,-2.20807 -0.57451,-3.27622 -1.64131,-6.0377 -4.43423,-11.67202 -6.5558,-17.54314 -0.69095,-1.91208 -1.30077,-3.21819 -2.01037,-5.75844 1.39376,0.48454 2.34903,0.57262 3.52354,0.85893 -0.41288,-2.51371 -0.26152,-5.18603 -1.13658,-7.5729 -1.19553,-3.261 -3.33651,-6.25867 -5.46322,-8.7911 -1.29142,1.15267 -2.62632,2.24988 -4.01062,3.27628 -1.70977,1.26771 -2.18359,2.14441 -5.29396,3.5515 -0.25293,-7.60043 0.0399,-14.65822 0.39566,-21.71033 z"
           id="path8959"
           style="fill:#f7f7f6;stroke:none" />
        <path
           d="m 105.24045,961.17495 c -1.73067,-2.81512 -3.6741,-5.63657 -4.48912,-8.83904 -0.4058,-1.5945 -0.37048,-3.3048 -0.14059,-4.93399 0.17414,-1.23414 0.57562,-2.44917 1.13654,-3.56218 0.6134,-1.21714 1.19857,-2.65759 2.3917,-3.31648 1.00461,-0.55478 2.34801,-0.58224 3.436,-0.21712 1.27497,0.42787 2.18834,1.606 3.05789,2.63192 0.73147,0.863 1.49055,1.80222 1.76251,2.90033 0.91479,3.69366 -0.52782,7.59309 -0.69021,11.39487 -0.16062,3.76025 -0.0108,7.53271 -0.28087,11.28754 -0.94542,-0.93397 -1.63008,-1.31574 -2.33065,-2.08873 -1.45905,-1.60987 -2.71533,-3.40624 -3.8532,-5.25712 z"
           id="path8957"
           style="fill:#ff6961;stroke:none" />
        <path
           d="m 109.64526,955.49364 c 0.20131,-1.59004 0.61293,-3.16387 0.63204,-4.76649 0.0223,-1.87143 0.18573,-3.88573 -0.60515,-5.58198 -0.54926,-1.17802 -1.50367,-2.30416 -2.69927,-2.81403 -0.59851,-0.25524 -1.37276,-0.29642 -1.95198,0 -1.09768,0.56174 -1.78479,1.82699 -2.16376,3.00038 -0.7354,2.27699 -0.60711,4.8639 0,7.1784 0.7355,2.80396 2.71043,5.13234 4.26859,7.57679 0.60169,0.94394 1.54152,2.14806 1.95647,2.72942 0.0507,-0.75894 0.0278,-2.44253 0.1212,-3.65943 0.0941,-1.22627 0.28738,-2.44293 0.44186,-3.66306 z"
           id="path8955"
           style="fill:#f7f7f6;stroke:none" />
        <path
           d="m 105.36504,953.11748 c -0.42132,-0.88293 -0.928,-1.75397 -1.11794,-2.71366 -0.24964,-1.26133 -0.55485,-2.69747 0,-3.85738 0.3852,-0.80526 1.1923,-1.6806 2.08495,-1.6806 0.82675,0 1.50089,0.85048 1.93101,1.55653 0.64988,1.06678 0.77831,2.42241 0.75163,3.67127 -0.0229,1.07088 -0.54408,2.07249 -0.77835,3.11768 -0.25388,1.13264 -0.45289,2.27688 -0.67934,3.41532 -0.37391,-0.57923 -0.83098,-1.10048 -1.19589,-1.68443 -0.36723,-0.58766 -0.69764,-1.19932 -0.99607,-1.82473 z"
           id="path8953"
           style="fill:#ff6961;stroke:none" />
        <path
           d="m 97.663204,957.88378 c -0.265602,-2.57825 -0.190616,-5.1966 0.04595,-7.77874 0.159757,-1.74377 0.320339,-3.67815 0.924016,-5.17131 l 1.112997,0.17666 c -0.524409,1.21096 -0.46094,2.59646 -0.581371,3.90894 -0.229128,2.49709 -0.429777,5.01747 -0.266338,7.52013 0.202999,3.10842 0.64426,6.22348 1.542162,9.20845 l -0.954268,0.63104 c -0.889519,-3.07688 -1.525973,-5.61044 -1.823148,-8.49517 z"
           id="path8951"
           style="fill:#ff6961;stroke:none" />
        <path
           d="m 116.55697,959.36558 c -0.60927,-1.17815 -1.8278,-3.53444 -1.8278,-3.53444 l 0.77264,0.0256 c 0.51805,0.69152 1.2874,1.76571 1.87486,2.68898 0.56041,0.88077 1.57085,2.71458 1.57085,2.71458 -0.18759,0.54657 -0.37517,1.09314 -0.56275,1.63971 0,0 -1.21853,-2.35629 -1.8278,-3.53444 z"
           id="path8947"
           style="fill:#ff6961;stroke:none" />
        <path
           d="m 113.43245,936.89154 -1.43773,-4.08961 0.77942,0.25234 0.77942,0.25234 0.50492,1.64351 c 0.27771,0.90394 0.82022,2.63071 1.2056,3.83727 l 0.70067,2.19375 -0.54728,0 -0.54729,0 z"
           id="path8945"
           style="fill:#ff6961;stroke:none" />
        <path
           d="m 93.90802,930.36638 c 1.245558,-3.04997 2.97503,-6.55481 4.769307,-8.61678 l 1.28619,0.48738 c -1.079516,1.22944 -1.809398,2.92829 -2.701475,4.4459 -0.892078,1.51762 -1.879361,4.1633 -2.802921,7.03863 l -1.679198,5.22787 -1.37463,0.43716 c 0.938671,-3.49991 1.326297,-6.13946 2.502727,-9.02016 z"
           id="path8943"
           style="fill:#ff6961;stroke:none" />
        <path
           d="m 274.37025,990.08404 c -3.50797,-2.92937 -6.26832,-6.76824 -8.85047,-10.60201 -1.2328,-1.83036 -2.53225,-3.71417 -3.13138,-5.86115 -0.79091,-2.83419 -0.97439,-5.93096 -0.49223,-8.83958 0.65675,-3.96187 2.35551,-7.77338 4.50867,-11.11344 0.7738,-1.20035 2.26437,-3.18574 2.93783,-3.07683 -0.46589,1.83764 -0.36564,3.10459 -0.16554,4.63733 0.28014,2.14583 1.04954,4.21026 1.88772,6.19208 1.21383,2.86999 2.62925,5.70206 4.5072,8.15346 1.6274,2.12434 3.56332,4.04823 5.74736,5.53528 2.1455,1.46081 4.69821,2.13658 7.04732,3.20486 -0.38541,0.41752 -3.49283,1.21891 -5.29522,1.58904 -2.1897,0.44967 -3.16203,0.27626 -6.65645,0.75754 0.50369,3.64847 0.43492,7.29695 0.65237,10.94542 -1.14784,-0.0751 -1.8994,-0.8558 -2.69718,-1.522 z"
           id="path8941"
           style="fill:#ff6961;stroke:none" />
        <path
           d="m 272.08494,977.09364 c 1.57634,-0.225 3.15267,-0.45 4.72901,-0.675 -1.29317,-1.49067 -2.56644,-2.99931 -3.66654,-4.64349 -2.10714,-3.14929 -4.42063,-6.2979 -5.57984,-9.94165 -0.43615,-1.37096 -0.46053,-3.43037 -0.46053,-4.30616 -1.20255,1.22512 -2.30316,5.00106 -2.46907,6.52707 -0.29086,2.98748 -0.28162,6.11856 0.5642,8.98923 0.52319,1.77569 1.66755,3.29688 2.70572,4.80711 1.40903,2.04974 3.29311,4.26206 4.74684,5.72303 -0.29857,-2.72073 -0.11941,-2.65142 -0.56979,-6.48014 z"
           id="path8939"
           style="fill:#f7f7f6;stroke:none" />
        <path
           d="m 72.981938,990.76843 c 0.813055,-2.99028 2.755914,-6.83873 3.322505,-9.88442 -2.768607,-0.30708 -6.296413,-1.24155 -9.091011,-2.33234 1.830368,-0.7308 3.417925,-1.42695 4.95255,-2.46449 2.782238,-1.88104 5.58003,-3.99874 7.573608,-6.72285 1.553218,-2.12238 2.593491,-4.65125 3.20789,-7.2085 0.913808,-3.80345 0.413482,-7.81243 0.620223,-11.71865 1.266335,1.34319 1.758241,1.98146 2.461272,2.9556 2.148525,4.31479 4.174039,8.7915 5.013496,13.5261 0.498507,2.81162 0.50649,5.76254 -0.03424,8.56634 -0.463267,2.40214 -1.449991,4.73731 -2.702058,6.82371 -1.325007,2.20795 -2.96151,4.30413 -4.979375,5.84115 -1.772985,1.3505 -3.864936,2.35424 -6.021786,2.7871 -1.41599,0.28418 -2.912697,0.11742 -4.323074,-0.16875 z"
           id="path8937"
           style="fill:#ff6961;stroke:none" />
        <path
           d="m 84.443907,983.75039 c 1.865228,-1.75323 3.379087,-4.07968 4.166132,-6.5424 1.054542,-3.29973 1.090322,-6.95905 0.536211,-10.37858 -0.449569,-2.7744 -2.467626,-6.51212 -3.071923,-7.85223 0.263922,3.15825 -0.956804,6.65956 -2.422086,9.59245 -1.716309,3.43535 -5.817437,7.064 -7.206663,8.86755 1.692499,0.0385 3.821683,0.12534 4.527575,-0.0567 -0.933658,2.46965 -3.224869,7.86832 -3.933254,10.41589 3.093756,-0.42217 5.334936,-2.10115 7.404008,-4.04598 z"
           id="path8935"
           style="fill:#f7f7f6;stroke:none" />
        <path
           d="m 155.45257,984.86218 -6.03172,0 5.55984,-5.46362 0,-3.98638 7.05157,1.73376 4.25868,-1.54707 -1.06387,5.97166 3.8994,3.95308 -8.23844,-0.55334 -3.76066,3.46255 z"
           id="path8933"
           style="fill:#ff6961;stroke:none" />
        <path
           d="m 216.1092,984.40838 c -1.61335,-2.16353 -5.15169,-6.13589 -7.86297,-8.82745 l -4.92959,-4.89375 c 0.62481,0 0.58212,0.0866 1.20693,0.0866 l 4.62927,3.7946 c 2.35134,1.92739 5.45504,5.95215 7.28015,8.48325 l 3.31836,4.602 c -0.23627,0.22947 -0.47253,0.45895 -0.70879,0.68842 z"
           id="path8931"
           style="fill:#ff6961;stroke:none" />
        <path
           d="m 190.47351,985.62573 -0.75681,-1.37345 -6.93678,0.79794 3.24796,-4.66813 -1.54571,-3.73652 7.07825,0.0451 6.63663,-4.07959 -1.0455,7.37536 3.03188,4.34864 -6.47379,0.52705 -2.47931,2.137 -0.75682,-1.37339 z"
           id="path8929"
           style="fill:#ff6961;stroke:none" />
        <path
           d="m 234.3722,978.78109 c -0.89676,-3.06775 -0.77222,-4.59754 -0.94234,-9.57017 -1.12423,-0.0807 -3.10798,0.69165 -4.61075,1.2185 -1.22092,0.42803 -1.6282,0.95828 -3.55828,1.57078 1.16105,-5.16298 2.72791,-11.28229 4.8604,-16.63775 1.41727,-3.55928 3.86484,-7.93403 5.23289,-10.19647 -1.1505,0.16004 -2.40456,0.63449 -3.68852,1.34566 0.29987,-3.2008 0.0819,-7.85055 1.17532,-11.55233 1.45835,-4.93717 4.68063,-9.15254 7.02094,-13.66825 2.31499,1.46583 2.67326,2.21598 3.8604,3.19841 1.82721,-3.70201 2.52555,-6.10865 3.74283,-9.18271 0.69931,-1.76601 1.20028,-3.45313 2.04543,-5.32015 2.26419,2.28903 5.52725,4.95066 7.67481,7.97668 2.35247,3.31475 4.14508,7.09427 5.54949,10.92778 1.87174,5.10914 2.478,10.60262 2.92744,16.02936 -1.10235,0.15141 -2.2047,0.30283 -3.30705,0.45425 -0.96753,8.11556 -1.21634,16.55338 -5.03501,23.97434 -0.945,2.02603 -1.91165,4.0419 -2.86682,6.06316 -1.70623,-1.70069 -2.99336,-3.19861 -4.08995,-4.40328 -1.08679,1.20482 -2.90606,4.14093 -4.5421,6.05221 -2.51875,2.94251 -3.91842,4.54831 -8.08815,8.30049 -2.12735,-3.231 -2.66619,-4.20367 -3.36098,-6.58051 z"
           id="path8927"
           style="fill:#ff6961;stroke:none" />
        <path
           d="m 242.88438,977.03155 c 2.82697,-3.26827 4.84457,-7.2354 6.89066,-11.06937 1.79612,0.99048 3.10482,1.74778 4.4698,2.82756 0.90695,-1.54649 1.91929,-3.03407 2.58153,-4.7029 1.21105,-3.05185 2.00283,-6.29865 2.48647,-9.56225 0.67796,-4.57484 0.37139,-9.24994 0.55709,-13.87491 0.98131,0.11358 1.96263,0.22715 2.94394,0.34071 -0.85182,-4.20475 -1.29312,-8.60173 -2.99742,-12.52105 -2.23397,-5.13736 -5.33719,-9.88051 -9.25687,-13.91053 -0.97493,3.11711 -1.45555,4.56767 -2.30496,6.80434 -1.25013,3.29186 -2.23443,5.10958 -4.10315,9.72292 -1.30437,-1.31612 -2.56272,-2.36113 -3.77226,-3.62807 -1.76342,1.98236 -2.9824,3.37639 -3.99647,5.38227 -0.63534,1.25674 -0.99219,2.66148 -1.25097,4.0552 -0.37268,2.00708 -0.21933,3.70562 -0.41859,6.11671 2.25557,-0.25294 3.78963,-0.77634 5.48813,-1.11102 -1.44918,3.33966 -3.6895,6.75018 -5.17057,10.06916 -2.7721,3.98812 -4.82861,9.75293 -5.93956,14.45284 1.84449,-0.26876 6.05507,-1.22617 7.51278,-2.05323 -0.52487,3.20667 -1.05245,5.63908 -0.74717,8.44965 0.30298,2.78938 1.33105,5.33825 2.52171,8.00318 1.89321,-0.87925 3.21398,-2.29763 4.50588,-3.79121 z"
           id="path8925"
           style="fill:#f7f7f6;stroke:none" />
        <path
           d="m 253.27462,962.41843 c 0.98394,-3.83738 1.85792,-7.7168 2.42978,-11.64375 0.439,-3.01456 0.74722,-6.075 0.76342,-9.1125 0.74978,0 0.48675,0 1.23653,0 0.0532,5.01328 -0.50232,10.55585 -1.39299,15.7437 -0.31204,1.81753 -0.7181,3.63616 -1.37745,5.35005 -0.16024,0.41653 -0.41325,0.7875 -0.61988,1.18125 -0.50106,0 -1.00211,0 -1.50317,0 0.15459,-0.50625 0.33216,-1.0055 0.46376,-1.51875 z"
           id="path8923"
           style="fill:#ff6961;stroke:none" />
        <path
           d="m 232.66955,962.83787 -0.7597,-0.88293 c 2.42669,-6.10471 3.6309,-8.14295 7.66117,-13.28435 l 0.69127,0.88627 c -3.71548,5.0392 -4.76268,6.99733 -7.59274,13.28101 z"
           id="path8921"
           style="fill:#ff6961;stroke:none" />
        <path
           d="m 243.47191,956.68098 c 0.11299,-4.4448 -1.42663,-9.00554 -0.43888,-13.33125 0.48263,-2.11362 1.37256,-4.36303 3.00704,-5.7159 0.95064,-0.78685 2.29398,-1.03303 3.50932,-1.02785 1.17451,0.005 2.46055,0.26729 3.38346,1.02219 0.84902,0.69446 1.33947,1.83575 1.6107,2.92308 0.55118,2.20965 0.39662,4.62084 -0.0832,6.84848 -0.38484,1.7867 -1.17982,3.49938 -2.19255,4.99616 -2.0274,2.99642 -4.86911,5.31551 -7.56718,7.66933 -0.50781,0.44302 -1.47212,1.66166 -1.61418,1.20728 -0.011,-1.29671 0.34643,-3.05571 0.38547,-4.59152 z"
           id="path8919"
           style="fill:#ff6961;stroke:none" />
        <path
           d="m 249.84346,951.50354 c 0.5824,-0.91016 1.30244,-1.76046 1.65998,-2.78889 0.74975,-2.15661 1.65587,-4.65156 0.92102,-6.81373 -0.35447,-1.04299 -1.34233,-1.85819 -2.33069,-2.26369 -0.80693,-0.33106 -1.82597,-0.40368 -2.60182,0 -1.07435,0.55899 -1.80903,1.80536 -2.16376,3.00038 -1.01688,3.4257 0.34995,7.16254 0.45968,10.74641 0.0347,1.13312 -0.0773,2.57724 0.0628,3.40047 0.64886,-0.52828 1.49451,-1.73131 2.18401,-2.64639 0.63994,-0.8493 1.23392,-1.73619 1.80877,-2.63456 z"
           id="path8917"
           style="fill:#f7f7f6;stroke:none" />
        <path
           d="m 246.72879,946.55598 c -0.33119,-1.69834 -0.73942,-4.08316 0.5628,-5.16557 0.91905,-0.76392 2.71043,-0.49945 3.50984,0.39809 0.79499,0.89257 0.35763,2.45808 0.1103,3.64682 -0.22539,1.08326 -0.87184,2.02803 -1.41267,2.98326 -0.65514,1.15713 -1.26269,2.3517 -2.20866,3.3097 -0.008,-1.90339 -0.23433,-3.494 -0.56161,-5.1723 z"
           id="path8915"
           style="fill:#ff6961;stroke:none" />
        <path
           d="m 237.00368,938.79348 c 0.0217,-1.20149 2.44331,-5.58823 3.10415,-6.47652 l 0.44005,0.59625 c -1.05198,2.29451 -1.69105,4.42951 -2.43481,6.72402 z"
           id="path8913"
           style="fill:#ff6961;stroke:none" />
        <path
           d="m 258.25991,935.24973 c -0.288,-1.11375 -1.82355,-4.60688 -3.41233,-7.7625 -1.12008,-2.25355 -2.27768,-4.48717 -3.3804,-6.75 l 0.70983,0 0.70983,0 2.54008,5.23125 c 1.39705,2.87719 2.85163,5.86935 3.23241,6.64926 l 0.69233,1.41802 -0.28407,1.61948 -0.28406,1.61949 z"
           id="path8911"
           style="fill:#ff6961;stroke:none" />
        <path
           d="m 133.79007,987.52808 c 1.76846,-2.34079 5.21775,-6.02691 7.93112,-8.93788 2.41355,-2.58931 7.42216,-7.58093 7.42216,-7.58093 l 1.11329,0.62997 c -2.9337,3.45001 -7.42803,8.22707 -16.12885,16.82746 z"
           id="path8909"
           style="fill:#ff6961;stroke:none" />
        <path
           d="m 59.76834,983.78226 c 0.886096,-2.05556 2.06993,-3.96569 3.181498,-5.9023 2.235622,-3.89498 4.430057,-7.8335 7.010017,-11.49028 0.541736,-0.76784 1.078686,-1.54513 1.771025,-2.18381 l 0.728853,0.65768 c -1.600888,3.29166 -4.365512,7.05538 -6.405361,10.67327 -0.778438,1.38064 -1.434336,2.83418 -2.224456,4.2076 -0.871595,1.51505 -1.850994,2.96008 -2.772253,4.44276 z"
           id="path8907"
           style="fill:#ff6961;stroke:none" />
        <path
           d="m 291.85141,980.02624 c -2.64627,-4.55976 -5.37347,-9.07912 -8.36776,-13.39905 -0.66966,-0.96613 -1.42786,-1.8622 -2.14179,-2.7933 0.27342,-0.26556 0.54684,-0.53112 0.82027,-0.79667 1.61217,1.77777 3.62334,4.45428 5.18848,6.86792 2.27275,3.50486 3.93013,6.8201 6.06635,11.00081 -0.23915,0.23229 -0.47831,0.46457 -0.71747,0.69685 -0.28269,-0.52552 -0.5489,-1.06104 -0.84808,-1.57656 z"
           id="path8905"
           style="fill:#ff6961;stroke:none" />
        <path
           d="m 157.76062,973.39377 c -5.46002,-1.80183 -8.71179,-7.70826 -13.861,-10.26639 -4.60696,-2.28874 -10.5369,-1.47204 -14.8114,-4.33404 -2.38836,-1.59913 -4.33915,-4.05469 -5.39154,-6.72937 -1.12715,-2.86467 -0.38597,-6.14601 -0.6851,-9.20989 -0.30311,-3.10463 -0.1229,-6.33602 -1.12396,-9.29042 -1.32796,-3.91917 -4.70318,-6.87789 -6.30779,-10.69215 -0.78166,-1.85806 -1.76599,-3.83205 -1.57469,-5.83873 0.22487,-2.35876 1.75316,-4.45038 3.11442,-6.38978 2.34401,-3.33954 6.42501,-5.28519 8.525,-8.78333 2.20614,-3.67496 1.19481,-8.94493 3.9329,-12.24269 1.83918,-2.21511 4.91921,-3.08323 7.59749,-4.10873 5.35246,-2.04943 11.31043,-1.97015 16.67429,-3.98697 5.95023,-2.2373 10.82658,-7.22559 16.94419,-8.90317 2.724,-0.74698 5.6906,-1.02911 8.4409,-0.41928 7.51704,1.66676 12.98148,8.81622 20.4238,10.78999 4.84035,1.2837 10.33116,-1.28385 15.01515,0.48736 2.82005,1.06637 5.19273,3.32782 6.97233,5.76151 3.53134,4.82928 3.51646,11.58524 6.7,16.65055 2.00655,3.19261 6.34578,4.80927 7.62496,8.35648 1.11558,3.09355 0.3736,6.6755 -0.468,9.85454 -1.08619,4.10296 -4.77469,7.22505 -5.76812,11.35145 -1.42276,5.90972 2.3687,12.65609 -0.0432,18.23568 -1.32223,3.0588 -4.37102,5.2159 -7.26591,6.86642 -3.60089,2.05304 -8.12357,1.84203 -11.95352,3.42725 -6.10257,2.52587 -10.97811,7.80349 -17.33451,9.59727 -3.30863,0.9337 -6.8677,0.58073 -10.30338,0.45832 -3.77577,-0.13452 -7.48346,-1.45575 -11.25875,-1.30825 -3.37343,0.1318 -6.56916,2.16306 -9.93846,1.95034 -1.35836,-0.0858 -2.53237,-1.06721 -3.87606,-1.28397 -1e-5,0 -3e-5,0 -4e-5,0 z"
           id="path8903"
           style="fill:#ff6961;stroke:none" />
        <path
           d="m 167.96021,972.06272 c 2.30325,-0.42864 4.60716,-1.07401 6.94981,-1.04808 4.39814,0.0487 8.60954,2.50412 13.00095,2.256 2.53868,-0.14344 5.30259,-0.59622 7.32113,-2.14249 6.4273,-4.92352 9.27843,-8.35667 19.16944,-9.90653 4.36409,-0.68383 8.95919,-2.67387 11.77726,-6.07555 1.32369,-1.59782 1.46562,-3.91456 1.77487,-5.96627 0.72183,-4.78896 -1.03245,-9.83096 0.14613,-14.52842 1.19147,-4.74884 6.03006,-8.18289 6.80334,-13.01746 0.37924,-2.37104 -0.17271,-4.94196 -1.17879,-7.10644 -2.10556,-4.52988 -7.39734,-6.81569 -9.67689,-11.2537 -1.74574,-3.39876 -1.00719,-7.80321 -2.76598,-11.1947 -1.03329,-1.9925 -2.57259,-3.74669 -4.39263,-5.02703 -1.7356,-1.22094 -3.85288,-1.87551 -5.92728,-2.32256 -4.41036,-0.95046 -9.16538,0.49919 -13.51721,-0.69088 -6.82371,-1.86605 -11.84857,-8.52409 -18.79687,-9.85311 -2.70156,-0.51674 -5.56823,0.057 -8.2063,0.86343 -4.97874,1.522 -9.1141,5.20108 -13.87627,7.34698 -4.27848,1.92794 -9.81441,2.65201 -14.51355,3.76823 -4.69914,1.11623 -7.84176,1.72505 -11.07621,5.22161 -2.58345,2.79281 -1.80317,8.49199 -4.11818,11.98252 -2.12724,3.20741 -6.36458,4.46213 -8.54779,7.58326 -1.17063,1.67353 -2.21909,3.65761 -2.24786,5.69973 -0.0421,2.98559 1.9465,5.64794 3.05036,8.42229 1.4865,3.73603 3.70234,7.19735 4.80693,11.06355 0.68785,2.40755 0.9654,4.93059 1.09805,7.43096 0.12732,2.39999 -0.99624,4.90582 -0.2934,7.20412 0.82486,2.69732 2.66689,5.25236 5.01434,6.81614 2.60279,1.73388 6.19612,1.09901 9.11614,2.21899 3.45935,1.32684 6.55471,3.45795 9.78779,5.26758 4.72118,2.64255 8.68419,7.32974 14.03036,8.16104 1.78419,0.27743 3.51316,-0.84285 5.28831,-1.17321 z"
           id="path8901"
           style="fill:#f7f7f6;stroke:none" />
        <path
           d="m 157.11346,969.9452 c -4.73267,-2.84603 -8.51285,-7.15034 -13.35807,-9.80024 -4.98887,-2.72847 -12.16548,-1.8632 -15.91677,-6.13651 -1.49413,-1.70206 -1.28483,-4.36039 -1.60222,-6.60286 -0.57633,-4.07195 0.38005,-8.31604 -0.53223,-12.32611 -0.94275,-4.144 -3.26571,-7.84874 -5.01456,-11.72212 -0.85231,-1.88771 -2.69686,-3.54018 -2.669,-5.6112 0.0338,-2.50924 1.97233,-4.65605 3.41546,-6.70905 1.82266,-2.59292 4.82509,-4.24496 6.51248,-6.92787 2.5104,-3.99148 1.74737,-9.87488 5.09363,-13.19701 2.56048,-2.54202 6.64206,-2.88621 10.126,-3.82435 5.02504,-1.35312 9.39519,-1.40966 13.71851,-3.0961 4.32332,-1.68644 8.59982,-5.00279 14.01332,-7.47821 2.70988,-1.23914 6.88041,-0.74337 10.10322,0.23714 4.55041,1.38441 7.61229,5.91533 12.03452,7.66655 3.14408,1.24507 6.60684,1.51551 9.96822,1.88505 2.82162,0.3102 5.80586,-0.58544 8.51147,0.2733 2.60112,0.82558 5.08007,2.41569 6.83654,4.50428 1.32792,1.57901 1.73349,3.74814 2.46862,5.6759 1.32111,3.46439 1.52736,7.41347 3.48193,10.56418 1.96795,3.17228 6.41812,4.47146 7.97223,7.86571 0.95251,2.08034 0.91568,4.60728 0.457,6.84886 -1.03859,5.07561 -5.87602,8.80733 -7.04308,13.85495 -1.13935,4.92781 1.79428,10.3582 0.24075,15.17151 -0.65616,2.03299 -2.1187,3.85896 -3.82869,5.1394 -5.4709,4.09661 -13.17359,3.95076 -19.22598,7.12591 -3.61175,1.89476 -6.09088,5.92748 -10.01961,7.02291 -4.86171,1.35557 -10.06606,-0.77066 -15.10699,-1.02129 -2.32141,-0.11542 -4.65387,-0.42475 -6.96929,-0.22207 -3.64541,0.3191 -7.11257,2.69489 -10.74485,2.25065 -1.07383,-0.13133 -1.99546,-0.85379 -2.92256,-1.41131 z"
           id="path8899"
           style="fill:#ff6961;stroke:none" />
        <path
           d="m 197.72201,962.50613 c 2.86927,-0.84773 5.81435,-1.5849 8.47779,-2.94779 2.38602,-1.22094 4.61867,-2.79309 6.58458,-4.61489 2.38389,-2.20914 4.48421,-4.76767 6.18658,-7.53627 1.78307,-2.89984 3.15742,-6.07939 4.11968,-9.34473 1.24464,-4.22356 1.92253,-8.6446 2.07751,-13.04501 0.11909,-3.38123 -0.18584,-6.8013 -0.88719,-10.11114 -0.70765,-3.33957 -1.76565,-6.64868 -3.31952,-9.68825 -1.37852,-2.69658 -3.26425,-5.12731 -5.2424,-7.42051 -1.65333,-1.91666 -3.35214,-3.89218 -5.49206,-5.24415 -3.92409,-2.47919 -8.52243,-3.77767 -13.0095,-4.96553 -7.29005,-1.9299 -14.8246,-3.13605 -22.35935,-3.44722 -4.67921,-0.19324 -9.56292,-0.46516 -14.01479,0.98854 -10.713,3.49818 -21.07779,9.61773 -28.63009,17.98243 -1.53062,1.69527 -2.28844,3.98472 -3.03478,6.14336 -1.73562,5.01991 -3.27241,10.28302 -3.27387,15.5945 -0.001,4.26942 0.94231,8.61247 2.62466,12.53646 2.75408,6.42377 6.53938,12.7804 11.90284,17.26181 5.49642,4.59251 12.6023,7.22672 19.57634,8.85906 6.73069,1.57538 13.81267,0.75745 20.72519,0.72311 4.06189,-0.0202 8.15275,0.0304 12.1736,-0.5459 1.63554,-0.23444 3.23024,-0.70972 4.81478,-1.17788 z"
           id="path8897"
           style="fill:#f7f7f6;stroke:none" />
        <path
           d="m 199.78125,892.86218 c -0.60772,0.0151 -1.24553,0.0788 -1.90625,0.1875 -2.74863,0.43528 -5.64681,1.06289 -7.90625,2.6875 -3.03516,2.18238 -4.9159,5.68478 -6.8125,8.90625 -2.69482,4.57729 -3.13173,10.33771 -6.375,14.625 l -6.5,-2.9375 c -0.0506,-3.80578 0.5411,-9.01896 1.75,-12.25 1.93056,0.31142 4.30195,0.45841 5.71875,-0.0625 1.91591,-0.70442 2.48385,-1.2624 4.03125,-2.59375 0.92539,-0.79619 1.7216,-2.02971 1.6875,-3.25 -0.0393,-1.40538 -0.9499,-2.90296 -2.15625,-3.625 -1.07517,-0.64352 -2.54327,-0.49373 -3.75,-0.15625 -3.02884,0.84706 -5.4091,3.27112 -7.84375,5.21875 -4.19008,-0.85718 -8.29627,-2.26111 -12.5625,-2.5625 -3.00236,-0.2121 -6.20606,-0.47551 -9.03125,0.5625 -1.94417,0.71431 -3.70038,2.08129 -4.96875,3.71875 -1.14744,1.48133 -1.89683,3.32769 -2.125,5.1875 -0.20816,1.69672 -0.0152,3.56513 0.75,5.09375 0.8517,1.7014 2.88946,2.72032 4.25,3.65625 0.44653,4.45689 1.63824,8.83959 2.6875,13.21875 -1.2155,0.72962 -2.28637,1.28327 -3.625,2.1875 -2.06991,1.3982 -3.21084,3.13612 -3.75,4.25 -1.17234,2.42201 -0.82766,2.67087 -0.65625,6.375 -1.69788,-0.28921 -3.99375,-2.39437 -4.90625,-4.03125 -0.77648,-1.39288 -1.13681,-3.06506 -1.03125,-4.65625 0.10165,-1.53235 1.4663,-3.30534 2.46875,-4.46875 1.24105,-1.44032 2.30165,-1.99443 4.125,-2.59375 -0.92461,-0.25506 -1.62071,-0.57701 -2.34375,-0.875 -2.52718,1.19944 -4.96705,3.30367 -6.28125,5.84375 -0.90351,1.74629 -1.22609,3.92855 -0.78125,5.84375 0.42121,1.81346 1.7231,3.36509 3.09375,4.625 1.76074,1.61847 4.28517,2.77426 6.44508,3.24778 0.8367,1.80551 2.3894,3.85432 4.02367,5.31472 0.977,0.87306 2.07385,1.69778 3.3125,2.125 2.67828,0.92375 5.7065,1.37968 8.46875,0.75 2.43451,-0.55497 4.65379,-2.06516 6.4375,-3.8125 1.6739,-1.63977 2.86276,-3.78746 3.71875,-5.96875 1.82885,-4.6604 2.68911,-9.72326 2.84375,-14.75 1.36876,-0.16747 1.94068,-0.75997 2.875,-1.21875 1.12616,-0.55298 2.25128,-1.09106 3.28125,-1.84375 -0.045,6.76472 -1.36159,15.0547 -0.0312,21.6875 0.48776,2.43216 2.02257,4.54928 2.9375,6.84375 -3.29156,2.06349 -7.51825,1.20398 -11.15625,0.78125 l 0.25,0.75 c 1.61359,0.52272 4.0213,0.9819 6.0625,1 1.78149,0.0158 4.03428,0.22995 7.22579,-0.95803 1.26796,1.34827 2.47156,1.54323 4.64921,2.33303 0.60295,0.22449 1.21254,0.50044 1.84375,0.625 1.80599,0.35633 3.67317,0.53897 5.5,0.3125 1.66055,-0.20586 4.2407,-1.02817 5.71875,-1.8125 1.4862,-0.78866 4.71649,-2.21093 6.28986,-3.86987 l -0.3211,-1.28638 c -3.20074,2.90089 -6.78694,4.58938 -11.28125,4.71875 -3.27351,0.0942 -7.85874,-1.4414 -9.62944,-3.41161 1.38657,-1.80443 2.32452,-4.16381 2.9375,-6.4375 2.29744,-8.52179 0.76228,-17.90391 3.03569,-26.43214 0.80092,-3.00448 2.16496,-5.88274 3.84375,-8.5 0.78095,-1.21751 2.55038,-3.55387 3.84375,-3.90625 -0.67331,2.41521 -2.2109,6.27558 -2.8125,9.09375 -0.49139,5.05244 -1.41354,6.63288 -1.5625,11.71875 -0.0971,3.31661 0.67024,9.02616 1.1875,11.96875 1.83654,-6.01804 2.49316,-9.77249 5,-15 0.88956,-1.85499 1.71907,-5.2327 3.46875,-6.5625 0,2.46325 -1.71412,8.08892 -1.25,12.125 0.31465,2.73628 1.38995,5.2723 2.6875,7.78125 0.91687,1.77287 2.2003,3.54339 3.96875,4.46875 2.00378,1.0485 4.54237,1.42722 6.71875,0.8125 1.66666,-0.47075 3.24945,-1.73787 4.09375,-3.25 0.82287,-1.47375 0.77693,-3.32205 0.59375,-5 -0.18801,-1.72216 -0.46726,-3.7396 -1.71875,-4.9375 -1.3077,-1.2517 -3.39932,-1.81273 -5.1875,-1.53125 -1.09895,0.17299 -1.79404,0.35857 -2.75,1.875 1.28296,0 2.67563,-0.53054 3.84375,0 1.42738,0.64829 2.61913,2.06837 3.09375,3.5625 0.48432,1.52465 0.39717,3.42553 -0.5,4.75 -1.0487,1.54816 -3.11257,2.71053 -4.96875,2.625 -1.47295,-0.0679 -2.74119,-1.34613 -3.75,-2.4375 -1.51455,-1.63849 -2.62261,-3.71643 -3.1875,-5.875 -0.68196,-2.6059 -0.341,-5.41144 -0.0937,-8.09375 0.31772,-3.45036 1.03118,-6.87 2.03125,-10.1875 1.13618,-3.76902 3.06322,-7.26801 4.46875,-10.9375 -1.46812,1.01533 -3.10179,1.84403 -4.40625,3.0625 -3.86643,3.61154 -7.36211,9.34432 -9.90625,14.90625 0.96878,-5.25953 2.30133,-11.70069 4.96875,-17.71875 0.48795,-1.10089 0.60338,-0.98586 1.03125,-3.15625 -2.49368,1.5684 -5.49627,2.41013 -7.71875,4.34375 -1.72475,1.50059 -3.19269,3.28128 -4.40625,5.21875 -1.41424,2.25786 -2.43685,4.77542 -3.25,7.3125 -1.06854,3.33392 -1.75297,6.8001 -2.125,10.28125 -0.54125,5.06451 0.6179,10.24707 -0.15625,15.28125 -0.28277,1.83879 -1.61264,4.74738 -2.375,6.34375 -0.6329,-1.67542 -1.59763,-3.96086 -1.90625,-6.0625 -0.48545,-3.30576 0.28373,-6.69129 0.125,-10.03125 -0.11991,-2.52307 -0.30582,-5.06059 -0.8125,-7.53125 -0.2719,-1.32581 -0.35222,-2.44295 -1.1875,-3.875 5.05642,-7.5337 7.39985,-16.95742 13.5,-23.59375 1.0187,-1.10824 2.36704,-1.95304 3.78125,-2.46875 2.13435,-0.77831 4.50169,-1.13853 6.75,-0.8125 2.0781,0.30135 4.10187,1.23945 5.78125,2.5 1.49485,1.12204 3.33037,2.99196 4.34375,4.5625 1.70696,2.64547 2.2513,4.28903 2.875,7.375 0.50065,2.4771 0.10715,5.91809 0.0937,8.4375 0.96831,-1.71904 0.83724,-1.34623 1.46875,-2.9375 0.65383,-3.58987 0.47911,-6.61134 -0.65625,-10.0625 -0.84338,-2.56363 -2.34024,-4.34498 -4.1875,-6.3125 -2.2818,-2.43035 -5.15799,-4.40673 -8.28125,-5.53125 -1.6552,-0.59595 -3.27058,-0.95151 -5.09375,-0.90625 z m -20.6875,3.28125 c 0.48351,-0.0328 0.95591,0.0388 1.34375,0.28125 0.57224,0.35778 0.93788,1.17446 0.84375,1.84375 -0.0936,0.66571 -0.95779,0.9606 -1.3125,1.53125 -0.0131,0.0188 -0.0148,0.0465 -0.0312,0.0625 -0.0276,0.0268 -0.0635,0.0387 -0.0937,0.0625 -0.81861,0.64525 -1.60666,1.46512 -2.625,1.6875 -1.38507,0.30246 -2.31042,0.22365 -4.21875,-0.59375 0.89082,-1.50758 2.67733,-3.68774 4.6875,-4.53125 0.42177,-0.17699 0.92274,-0.31095 1.40625,-0.34375 z m -26.84375,2.9375 c 5.2181,0.0529 10.24218,2.1202 15.125,4 -0.98075,4.19595 -2.09363,9.2064 -2.8125,13.45688 -2.25323,0.17715 -3.8689,0.12838 -5.25,1.51187 -1.0031,1.00484 -1.7267,2.48697 -1.6875,3.90625 0.0391,1.41235 0.9265,2.7653 1.875,3.8125 1.30786,1.44395 3.50394,2.00302 4.96875,2.34375 -0.17267,4.33598 0.59461,9.55091 -0.5,13.75 -0.55915,2.14499 -1.48989,4.34443 -3.03125,5.9375 -1.73044,1.52257 -2.84262,2.02654 -4.78125,2.5625 -1.93526,0.48262 -4.14851,0.80422 -6,0.0625 -1.94281,-0.7783 -3.50438,-2.53407 -4.5,-4.375 -0.30987,-0.57299 -1.042,-1.28124 -1.125,-1.9375 0.87031,-0.60621 3.31433,-1.75776 3.73116,-2.22005 1.82681,-2.02606 2.81569,-2.47366 4.11259,-4.8737 0.8926,-1.65184 0.75931,-3.47371 0.75536,-6.15533 0.88307,-0.0707 2.46739,-0.007 2.97449,0.37316 1.13141,0.84771 2.54792,1.98174 3.20765,3.93842 0.64389,1.90971 0.3628,4.29947 -0.71875,6 -1.27252,2.00079 -3.77987,2.92214 -6.03125,3.75 1.21165,0.0285 0.96983,-0.0173 1.94563,0.13789 1.41821,-0.085 4.45187,-1.56432 5.30437,-2.82544 1.07321,-1.58763 1.68842,-3.62137 1.53125,-5.53125 -0.15048,-1.82853 -1.44604,-4.55777 -2.66605,-5.92808 -1.40652,-1.57981 -3.08314,-2.8016 -5.71561,-2.73797 -0.25014,-1.3534 -0.43996,-2.04824 -0.65403,-3.07361 -0.63523,-3.04269 -1.25393,-5.6046 -1.87056,-9.13534 1.47582,0.15454 4.01797,-1.22136 5.25,-2.46875 0.91123,-0.92259 1.54884,-2.33614 1.40625,-3.625 -0.13606,-1.22983 -1.05476,-2.37579 -2.0625,-3.09375 -0.95828,-0.68272 -2.22983,-0.88535 -3.40625,-0.90625 -1.25091,-0.0222 -2.64167,0.11169 -3.65625,0.84375 -1.24673,0.89957 -2.67055,3.18606 -2.34375,4.9375 -0.98155,-0.2608 -1.08445,-0.76363 -1.5,-1 -0.54592,-0.31053 -0.83547,-1.01125 -0.96875,-1.625 -0.21737,-1.00101 -0.0545,-2.08748 0.34375,-3.03125 0.976,-2.31309 2.65416,-4.47892 4.78125,-5.8125 1.1512,-0.72174 2.61008,-0.98255 3.96875,-0.96875 z m 0.25,9 c 0.59692,0.005 1.17335,0.16157 1.625,0.46875 0.58541,0.39815 0.76355,1.29225 0.78125,2 0.0143,0.57157 -0.17103,1.18099 -0.53125,1.625 -0.45397,0.55957 -1.17558,0.92047 -1.875,1.09375 -0.97358,0.24121 -1.38713,0.13436 -3,-0.15625 -0.4847,-2.18516 0.1045,-3.61557 1.375,-4.5625 0.43795,-0.32641 1.02808,-0.47356 1.625,-0.46875 z m 9.90625,11.21875 c 0.50921,-0.07 1.0861,0.11365 1.59375,0.0625 l 0,2.3125 0,3.375 c 0.24209,0.82621 -1.41473,0.43362 -2,0.0937 -0.81359,-0.47219 -1.263,-1.56062 -1.3125,-2.5 -0.0597,-1.13188 0.33143,-2.52347 1.25,-3.1875 0.14143,-0.10224 0.29901,-0.13293 0.46875,-0.15625 z m 7.875,0.0625 c 1.41559,0.24423 2.06131,0.47838 2.96875,1 0.7742,0.44503 1.71039,0.85799 2,1.78125 -0.79435,1.09438 -1.57598,1.55383 -2.5,2.15625 -0.72996,0.4759 -1.47384,1.125 -2.34375,1.125 0,-1.35 -0.125,-4.7125 -0.125,-6.0625 z m -20.6875,12.15625 c 0.35472,2.14169 0.25268,2.81616 -0.125,4.15625 -0.32674,1.15935 -1.03479,2.21092 -1.78125,3.15625 -0.42358,0.53643 -0.94744,1.00394 -1.5,1.40625 -0.86947,0.63305 -2.01478,1.45081 -2.8125,1.5625 0,-1.03329 -0.50817,-2.61519 -0.25,-3.875 0.30063,-1.46701 0.9873,-2.92638 2.03125,-4 1.1782,-1.21169 1.81871,-1.9168 4.4375,-2.40625 z"
           id="path8895"
           style="fill:#ff6961;stroke:none" />
        <path
           d="m 61.853282,965.52545 c 0,-1.21544 14.240891,-16.43827 15.377928,-16.43827 0.36751,0.49293 0.606628,0.72419 0.606628,1.48127 l -3.375966,2.94803 c -1.856787,1.62141 -5.176048,5.08499 -7.376151,7.69686 -1.788622,2.12338 -3.096732,3.52608 -3.957686,4.2356 -0.713455,0.21938 -0.802756,0.0519 -1.274753,0.0765 z"
           id="path8881"
           style="fill:#ff6961;stroke:none" />
        <path
           d="m 283.3776,957.74236 c -1.62708,-1.35846 -3.23246,-2.74919 -4.92648,-4.01623 -1.27441,-0.95319 -2.6225,-1.79523 -3.93375,-2.69285 0,-0.44914 0,-0.89828 0,-1.34742 0.89724,0.56918 1.8182,1.0998 2.69171,1.70753 1.91809,1.3345 3.78513,2.7523 5.58786,4.25043 1.3412,1.11458 3.8826,3.51913 3.8826,3.51913 l -1.12137,0.4437 c -0.3074,-0.35976 -1.44681,-1.25167 -2.18057,-1.86429 z"
           id="path8879"
           style="fill:#ff6961;stroke:none" />
        <path
           d="m 73.155482,943.71112 c 2.012465,-2.4823 4.27967,-4.74152 6.486846,-7.04778 0.781955,-0.80866 1.564374,-1.61687 2.345684,-2.42616 0.511077,0 1.022155,0 1.533232,0 -2.36536,2.79621 -4.773679,5.56241 -7.397532,8.12144 -0.925456,0.91098 -1.8715,1.81386 -2.932708,2.56561 -0.298056,0.17339 -1.314513,0.26305 -0.735359,-0.24268 0.233279,-0.32348 0.466558,-0.64695 0.699837,-0.97043 z"
           id="path8877"
           style="fill:#ff6961;stroke:none" />
        <path
           d="m 275.77677,941.80211 c -1.34133,-1.40804 -3.97168,-3.83608 -5.84523,-5.39564 l -3.40644,-2.83558 c 0.76387,-0.003 1.52775,-0.005 2.29162,-0.008 l 5.28276,4.79168 c 2.90552,2.63542 4.01628,3.81759 5.28276,5.4 l -0.75306,0.89379 z"
           id="path8875"
           style="fill:#ff6961;stroke:none" />
        <path
           d="m 54.98436,940.83169 c 0.796129,-7.7827 3.192069,-15.40929 6.991714,-22.07524 3.083854,-5.41019 7.588036,-9.9643 12.395769,-13.78529 3.924097,-3.11872 8.420667,-5.55901 13.101924,-7.20224 3.713383,-1.30348 7.678589,-1.77447 11.599524,-2.00674 l -0.817778,1.36134 c -4.814955,0.72739 -9.756421,1.72795 -14.176073,3.89625 -5.520387,2.70832 -10.708427,6.46893 -14.86485,11.11308 -4.118394,4.60165 -7.158505,10.26598 -9.498719,16.05905 -1.928402,4.77365 -2.598396,9.93273 -3.606955,15.07155 z"
           id="path8873"
           style="fill:#ff6961;stroke:none" />
        <path
           d="m 293.73921,935.50147 c -0.69382,-3.48663 -1.05009,-7.1232 -2.44771,-10.37391 -2.33765,-5.43709 -5.42283,-10.78941 -9.70595,-14.74579 -5.12784,-4.73666 -11.68618,-7.79258 -18.23373,-9.92254 -3.68711,-1.19944 -7.63548,-1.28314 -11.50116,-1.49395 l 1.14416,-1.38545 c 7.14206,-0.17306 15.71326,2.1017 22.36227,6.16104 6.44909,3.93728 11.88594,10.02179 15.58186,16.77925 3.22291,5.89263 4.38932,12.8838 5.14497,19.61815 l -1.33105,1.59748 c -0.33669,-2.07816 -0.60296,-4.1704 -1.01366,-6.23428 z"
           id="path8871"
           style="fill:#ff6961;stroke:none" />
        <path
           d="m 295.46127,926.77121 c -3.90411,-10.57884 -8.32438,-15.74075 -14.815,-21.35398 -4.83873,-4.18464 -11.15809,-6.24428 -17.07046,-8.39514 l 1.02905,-0.83092 c 3.62392,0.77784 8.684,2.42228 12.51401,4.76047 4.98711,3.04458 9.55829,7.05608 13.14327,11.7729 3.00938,3.95949 5.0571,8.68932 6.69528,13.44274 z"
           id="path8869"
           style="fill:#ff6961;stroke:none" />
        <path
           d="m 86.610176,923.94343 c 1.763152,-2.89089 8.305082,-10.84917 11.442704,-13.92009 l 3.7051,-3.62633 0.26573,0.77426 0.26572,0.77425 -2.812381,2.85208 c -3.718703,3.77119 -7.680183,8.40153 -9.824539,11.48334 l -1.737452,2.49701 -0.909744,0.005 -0.909736,0.005 0.514598,-0.84375 z"
           id="path8867"
           style="fill:#ff6961;stroke:none" />
        <path
           d="m 248.30198,905.85048 c 0.31909,-0.19154 0.63818,-0.38308 0.95727,-0.57461 6.17507,4.9572 11.50572,10.84072 16.36044,18.05848 -0.50506,0.0343 -1.01013,0.0686 -1.51519,0.10283 -4.98045,-7.06224 -9.98957,-11.91321 -15.80252,-17.5867 z"
           id="path8865"
           style="fill:#ff6961;stroke:none" />
        <path
           d="m 55.281599,922.03789 c 3.348952,-5.67587 5.822132,-10.74004 10.07591,-14.90286 4.522095,-4.4254 11.052773,-7.847 15.864419,-10.16475 l 1.612668,0.5221 c -8.27463,4.38771 -12.943855,7.66241 -18.132708,13.08263 -2.95397,3.08568 -4.522926,6.57978 -7.111067,10.76339 z"
           id="path8863"
           style="fill:#ff6961;stroke:none" />
        <path
           d="m 108.41699,920.63023 c 0,0 0.59665,-4.32538 1.32588,-8.38125 0.72923,-4.05586 1.54154,-8.89305 1.80512,-10.7493 0.26358,-1.85625 0.64426,-3.63524 0.84594,-3.95331 l 1.42067,1.07803 -0.99779,4.13764 c -0.54878,2.2757 -2.91862,18.01005 -2.91862,18.01005 z"
           id="path8861"
           style="fill:#ff6961;stroke:none" />
        <path
           d="m 239.69805,907.17753 c -1.36936,-4.43777 -2.27952,-9.00056 -2.92119,-13.64701 0.53384,0.32044 1.06768,0.64088 1.60152,0.96133 0.58989,3.46938 1.00999,6.4302 1.95164,9.52575 0.76939,2.52929 3.00033,7.32212 3.00033,7.32212 -0.14487,1.21999 -0.28973,2.43997 -0.4346,3.65996 0,0 -2.36534,-5.12465 -3.1977,-7.82215 z"
           id="path8859"
           style="fill:#ff6961;stroke:none" />
        <path
           d="m 119.55878,903.1264 c -0.52423,0 1.60775,-4.44237 2.09443,-6.75241 0.64151,-3.04495 0.97055,-6.16936 1.07048,-9.2846 0.0907,-2.82746 0.093,-4.26555 -0.42937,-8.47537 l 1.27414,0.66327 c 0.65369,4.36086 0.89202,9.78961 0.13806,14.58962 -0.52537,3.34469 -1.8553,6.23096 -3.20214,9.60749 z"
           id="path8857"
           style="fill:#ff6961;stroke:none" />
        <path
           d="m 227.98158,894.90913 c -0.92259,-3.2099 -1.47075,-6.52533 -2.07148,-9.81656 -0.29859,-1.63589 -0.76121,-4.93211 -0.76121,-4.93211 0.40852,-0.70902 0.81706,-1.41804 1.22559,-2.12706 0.53207,2.76673 0.79109,5.53042 1.28059,8.27878 0.433,2.43115 0.87941,4.86299 1.46451,7.25955 0.29201,1.19607 1.01964,3.54706 1.01964,3.54706 -0.16025,0.78529 -0.32048,1.57059 -0.48071,2.35589 0,0 -1.22833,-3.00479 -1.67693,-4.56555 z"
           id="path8855"
           style="fill:#ff6961;stroke:none" />
        <path
           d="m 92.278769,892.1167 c -0.215869,-0.21246 -0.11639,-0.89686 -0.193829,-1.18457 1.869073,0.36924 3.711667,0.93526 5.606289,1.1173 5.646641,0.54253 11.341081,-0.0601 17.011621,-0.0901 -0.16565,0.48014 -0.33129,0.96028 -0.49692,1.44042 -5.28872,0.0401 -10.60701,0.70147 -15.866164,0.1202 -2.058311,-0.22749 -4.374301,-0.48491 -6.060997,-1.40325 z"
           id="path8853"
           style="fill:#ff6961;stroke:none" />
        <path
           d="m 237.60137,889.68718 c 0,0 6.45723,0.0957 9.68387,0 4.79753,-0.14231 9.20816,-0.46614 14.37499,-0.85352 -0.60149,0.622 -1.20298,1.24401 -1.80447,1.86602 0,0 -7.1067,0.15193 -10.66005,0.22789 -3.55335,0.076 -10.66004,0.22788 -10.66004,0.22788 -0.31145,-0.48941 -0.62287,-0.97884 -0.9343,-1.46827 z"
           id="path8851"
           style="fill:#ff6961;stroke:none" />
        <path
           d="m 103.20463,884.81872 c -4.241515,-2.69825 -8.582905,-5.36016 -13.271956,-7.08371 -4.663137,-1.71402 -9.639921,-2.40039 -14.527269,-3.14658 l 2.215622,-1.08339 c 5.234503,0.65033 10.180644,1.48761 14.951958,3.35526 3.915485,1.53265 7.450045,3.98845 10.967265,6.34242 1.28792,0.86196 3.2238,2.44254 3.69556,2.83862 l -0.55627,1.37812 c -1.1583,-0.86691 -2.25741,-1.82622 -3.47491,-2.60074 z"
           id="path8849"
           style="fill:#ff6961;stroke:none" />
        <path
           d="m 106.35693,878.47111 c -2.51967,-3.36448 -5.49489,-6.44325 -8.869912,-8.86865 -3.85427,-2.7698 -8.277044,-4.65471 -12.696697,-6.2756 -3.703261,-1.35816 -7.576984,-2.22836 -11.459125,-2.84593 -2.612239,-0.41556 -6.663492,-0.50029 -7.909125,-0.56982 l -1.656179,-1.53954 c 2.387861,0.009 5.138678,0.0362 7.688521,0.32501 3.895162,0.44115 7.815696,0.98439 11.571991,2.14429 4.916937,1.5183 9.875145,3.32872 14.168713,6.2457 4.088933,2.77795 7.639963,6.46196 10.652943,10.45659 1.54203,2.04444 2.67314,4.00797 3.6974,6.77888 l -0.83473,2.08856 c -1.13161,-2.9642 -2.55337,-5.53541 -4.3538,-7.93949 z"
           id="path8847"
           style="fill:#ff6961;stroke:none" />
        <path
           d="m 111.5336,878.85286 c -1.91357,-3.91751 -4.62541,-7.27414 -7.23023,-10.82992 l 0.91191,-0.84022 c 2.55041,2.86109 5.0753,6.13518 6.88228,9.67998 1.61149,3.16128 2.70992,6.42652 3.4239,10.12448 -0.4272,0 -0.8544,0 -1.2816,0 -0.61493,-3.29354 -1.45658,-5.57593 -2.70626,-8.13432 z"
           id="path8845"
           style="fill:#ff6961;stroke:none" />
        <path
           d="m 245.6033,882.53645 c 2.82308,-2.71987 5.92449,-5.29708 9.4235,-6.99031 5.02877,-2.43351 11.06838,-4.27788 16.11875,-4.30761 l -0.21662,1.26736 c -3.96585,0.49088 -9.30359,1.63843 -13.56158,3.62464 -4.00979,1.87044 -7.12838,4.26146 -10.93975,7.64697 z"
           id="path8843"
           style="fill:#ff6961;stroke:none" />
        <path
           d="m 238.37838,882.70433 c 0.62701,-2.24513 3.2374,-7.10537 5.81669,-9.88814 4.94074,-5.33051 11.21965,-9.45211 17.80116,-12.28541 6.18522,-2.6627 11.077,-3.49686 19.68887,-4.13214 -0.38148,0.49308 -0.6372,1.21525 -1.09817,1.56354 -5.60239,0.2453 -10.19585,1.09963 -14.94236,2.95017 -6.3973,2.49414 -12.62201,6.00185 -17.68304,10.76966 -3.31074,3.11893 -5.89082,7.10134 -7.87544,11.27147 z"
           id="path8841"
           style="fill:#ff6961;stroke:none" />
        <path
           d="m 236.0712,875.09413 c 1.80536,-4.86707 4.61108,-9.41143 8.00484,-13.2563 2.89552,-3.28041 6.62699,-5.8453 10.25708,-8.0478 0.55388,0.17932 1.10776,0.35864 1.66164,0.53795 -3.43048,2.33391 -6.06972,4.01902 -8.58244,6.65227 -3.61773,3.79129 -6.89556,8.10208 -9.10992,12.9187 -1.19539,2.60019 -1.67372,5.57512 -2.1299,8.35616 -0.49109,0.29478 -0.98218,0.58956 -1.47327,0.88434 0.28659,-2.73385 0.42926,-5.50385 1.37197,-8.04532 z"
           id="path8839"
           style="fill:#ff6961;stroke:none" />
        <path
           d="m 181.55781,868.08718 c -0.027,-0.41755 0.38779,-0.94628 0.71275,-1.0125 2.19188,-0.44669 6.77658,0.23138 6.77658,0.23138 6.88237,0.2186 8.2555,0.40998 7.57448,1.05568 -0.15926,0.151 -3.6582,0.46029 -7.77891,0.50625 0,0 -4.49772,0.11956 -6.4949,0.0724 -0.37926,-0.009 -0.76449,-0.45902 -0.79,-0.85324 z"
           id="path8837"
           style="fill:#ff6961;stroke:none" />
        <path
           d="m 157.63549,868.08801 c 0,0 3.35583,-0.43777 5.04102,-0.57639 1.58142,-0.13009 3.16855,-0.16967 4.75349,-0.23927 1.75714,-0.0772 3.44501,-0.30208 5.2727,-0.19767 0.30142,0.0172 0.64944,0.18705 0.78681,0.46701 0.12935,0.26362 0.19002,0.84464 -0.0918,0.88299 -2.44255,0.33238 -5.09664,0.0748 -7.64478,0.12342 -2.75552,0.0526 -8.26608,0.18226 -8.26608,0.18226 z"
           id="path8835"
           style="fill:#ff6961;stroke:none" />
        <path
           d="m 176.33726,867.98459 c 0.0936,-2.69391 0.32812,-3.74199 0.42923,-5.62428 0.17537,-1.68496 0.17916,-3.13348 0.584,-4.78035 l 0.38765,0.0591 c 0.20226,1.63394 0.54949,4.26974 0.56559,4.70983 0.24373,2.56291 0.39012,3.89826 0.43035,5.59942 0.0131,0.5548 -0.66729,0.70232 -1.10059,0.72313 -0.48427,0.0233 -1.30996,-0.2914 -1.29623,-0.68685 z"
           id="path8833"
           style="fill:#ff6961;stroke:none" />
        <path
           d="m 296.61389,901.1107 c -2.05386,-1.19759 -3.23818,-3.55867 -4.97175,-5.21467 -1.87735,-1.79336 -3.71376,-3.68223 -5.86774,-5.10124 -2.71358,-1.78765 -6.10275,-3.92949 -8.74835,-4.20657 0.93779,-0.72417 1.86069,-1.3507 2.89688,-1.81142 2.53289,-1.12619 5.23094,-1.98314 7.97278,-2.26555 2.12184,-0.21855 4.30948,-0.0626 6.38137,0.46047 2.52915,0.63857 4.99039,1.733 7.16865,3.21463 1.85274,1.26022 3.71435,2.74062 4.85511,4.71552 0.62296,1.07848 0.98982,2.3887 0.9422,3.64609 -0.0794,2.09621 -0.61229,4.43256 -2.02555,5.93158 -1.07235,1.13742 -2.77092,1.58834 -4.30058,1.691 -1.47107,0.0987 -3.01766,-0.31035 -4.30302,-1.05984 z"
           id="path8831"
           style="fill:#ff6961;stroke:none" />
        <path
           d="m 303.37153,898.57329 c 0.61285,-0.58903 0.92679,-1.51052 1.03001,-2.37144 0.16061,-1.33958 -0.0656,-2.79973 -0.68223,-3.98713 -1.04572,-2.01351 -2.91191,-3.53662 -4.79993,-4.70862 -1.6359,-1.0155 -3.54781,-1.52719 -5.42415,-1.86892 -2.40995,-0.43891 -4.92791,-0.64545 -7.33755,-0.20472 -0.90727,0.16594 -2.28474,0.60263 -2.57108,1.05263 0.47655,-0.0335 3.76371,2.22855 5.4416,3.63601 2.20498,1.84959 2.9344,2.05512 6.00223,6.25502 0.93142,1.27513 2.33555,2.20029 3.77758,2.76106 0.74585,0.29004 1.58599,0.35618 2.37654,0.2559 0.76932,-0.0976 1.61818,-0.27311 2.18698,-0.81979 z"
           id="path8829"
           style="fill:#f7f7f6;stroke:none" />
        <path
           d="m 292.58001,890.51352 c -1.16451,-1.16157 -1.75844,-1.85639 -3.72194,-3.21962 1.76363,-4.3e-4 3.91129,-0.19672 5.75,0.38275 2.40551,0.75813 4.91797,1.91769 6.53256,3.92884 0.69916,0.87088 1.23949,2.07757 1.11109,3.20625 -0.0604,0.53045 -0.39372,1.08891 -0.84572,1.33703 -0.83782,0.45989 -1.93784,0.24631 -2.8369,-0.0606 -1.21284,-0.41396 -2.17797,-1.41419 -3.13491,-2.29455 -1.06218,-0.97718 -1.83076,-2.25928 -2.85418,-3.2801 z"
           id="path8827"
           style="fill:#ff6961;stroke:none" />
        <path
           d="m 50.026497,899.67266 c -1.247321,-0.73342 -2.277417,-2.01745 -2.76781,-3.41754 -0.535299,-1.52829 -0.441593,-3.3216 0.0052,-4.88044 0.468264,-1.63375 1.485314,-3.12392 2.687621,-4.28101 1.755757,-1.68972 3.99867,-2.8834 6.293168,-3.58201 3.315581,-1.0095 6.887166,-0.8887 10.338613,-0.74056 2.377049,0.10202 4.693945,0.56821 7.055501,1.11845 -0.965345,1.00246 -0.965345,1.00246 -1.93069,2.00491 -1.164508,1.20928 -3.331078,2.53819 -4.826727,4.00982 -2.183335,2.14827 -3.988213,4.7405 -6.008122,6.99099 -1.629585,1.8156 -3.887092,3.12804 -6.216883,3.54783 -1.53997,0.27747 -3.269789,0.0293 -4.629871,-0.77044 z"
           id="path8825"
           style="fill:#ff6961;stroke:none" />
        <path
           d="m 63.363761,890.61298 c 1.729937,-1.67431 3.45827,-2.82014 5.448302,-4.71852 -0.965345,0 -2.566744,-0.41752 -3.861381,-0.50122 -1.608503,-0.10399 -3.237001,-0.21828 -4.834852,0 -2.096197,0.28636 -4.278461,0.63782 -6.126973,1.70347 -1.576311,0.90873 -3.232328,2.11698 -3.950247,3.83667 -0.603929,1.44664 -0.603928,3.28578 0,4.73242 0.396962,0.95087 1.257981,1.74142 2.184225,2.12143 1.106887,0.45413 2.444825,0.40424 3.569,0 1.534015,-0.55162 2.624081,-1.99577 3.827248,-3.1275 1.335182,-1.25592 2.426813,-2.77126 3.744678,-4.04675 z"
           id="path8823"
           style="fill:#f7f7f6;stroke:none" />
        <path
           d="m 51.797208,892.18186 c 0.243613,-1.50599 1.735844,-2.56723 2.984546,-3.37381 1.565113,-1.01096 3.492602,-1.27424 5.306322,-1.61515 1.281729,-0.24092 2.931915,-0.29598 3.897261,-0.29598 -2.582118,2.50317 -4.479541,6.79594 -7.928635,8.37781 -0.88996,0.40817 -2.093079,0.65214 -2.916607,0.11423 -0.950224,-0.62067 -1.528851,-2.05749 -1.342887,-3.2071 z"
           id="path8821"
           style="fill:#ff6961;stroke:none" />
      </g>
      <g
         transform="matrix(0.96066398,0,0,1.1053098,10.04271,-69.036827)"
         id="g9679">
        <path
           d="m 91.1875,689.26843 c -1.76645,0.26329 -3.749977,0.42277 -5.125,1.5625 -1.520981,1.26071 -2.4749,3.2937 -2.75,5.25 -0.441569,3.14009 1.019545,6.27664 1.918827,9.31744 1.07492,3.6347 2.784578,7.2213 4.13295,10.59325 1.274081,0.0828 2.852946,-0.72822 3.888995,-1.40031 0.3055,-0.24049 -1.000991,-2.21416 -1.472616,-3.3337 -0.477775,-1.13414 -0.707325,-1.63725 -1.374406,-3.42663 0.582227,-0.73699 1.369884,-1.26295 2.176271,-1.71198 1.785857,-0.99445 3.833126,-1.42248 5.761229,-2.10052 1.007025,1.25014 1.67753,2.74171 2.51971,4.11046 0.68948,1.12058 1.31833,2.28199 2.07404,3.35829 0.90259,-0.45583 2.41702,-1.27837 3.30622,-1.7598 -0.0206,-0.9661 -2.20782,-4.23141 -3.30087,-6.35273 -1.8971,-3.68175 -3.261785,-7.68325 -5.653567,-11.06462 -0.350062,-0.4949 -0.743191,-0.9891 -1.251396,-1.31955 -1.43834,-0.93524 -3.159585,-1.43086 -4.850347,-1.7221 -1.3e-5,0 -2.7e-5,0 -4e-5,0 z m -1.3125,4.65625 c 1.102448,-0.46909 2.57037,-0.5606 3.59375,0.0624 1.855058,1.1293 2.60329,3.57963 3.091964,5.73487 -0.468738,0.7711 -1.889664,0.858 -2.852698,1.24345 -1.540924,0.61675 -3.117759,1.13968 -4.676766,1.70918 -0.843319,-1.28191 -1.573034,-2.61005 -1.813797,-4.07823 -0.109197,-0.66589 -0.08704,-1.3997 0.188797,-2.01552 0.494123,-1.10315 1.356493,-2.18289 2.46875,-2.65615 z"
           id="path8819"
           style="fill:#ff6961;stroke:none" />
        <path
           d="m 260.90625,691.92468 c -2.29953,0.73247 -4.35909,2.33531 -5.90625,4.1875 -1.26564,1.51517 -1.91604,3.48166 -2.51066,5.36422 -0.41871,1.32564 -0.64415,2.71953 -0.72254,4.10751 -0.0812,1.43692 -0.23418,2.95945 0.26445,4.30952 0.51536,1.39538 1.4654,2.71448 2.6875,3.5625 1.7549,1.21772 4.0132,1.99071 6.14274,1.82468 1.0498,-0.0819 1.97846,-0.77028 2.85218,-1.35798 0.96468,-0.64888 1.87106,-1.43579 2.57591,-2.3515 -0.51412,-0.69245 -1.00353,-1.50748 -1.66652,-2.11092 -0.38481,-0.35024 -0.88195,-0.55023 -1.31056,-0.84803 -1.27083,1.1875 -2.15131,3.04711 -3.8125,3.5625 -0.87385,0.27111 -1.99132,0.15129 -2.71405,-0.40975 -0.65902,-0.51158 -0.86411,-1.47806 -0.97561,-2.30486 -0.21703,-1.60935 0.26102,-3.24856 0.64279,-4.82917 0.12848,-0.4761 0.0735,-1.22902 0.81105,-0.78318 2.61994,0.42927 4.99945,1.69082 7.50831,2.50857 0.96076,0.31315 1.97786,1.02658 2.88911,0.91823 0.63241,-1.22542 1.62736,-2.29001 2.07741,-3.60049 0.59772,-1.74049 1.08045,-3.65577 0.76099,-5.4681 -0.27422,-1.55568 -1.14836,-3.02577 -2.21875,-4.1875 -0.87768,-0.95257 -2.03029,-1.73017 -3.27348,-2.09375 -1.31221,-0.38376 -2.79884,-0.41494 -4.10152,0 z m 2.28125,3.125 c 0.75305,-0.0895 1.64648,0.22419 2.125,0.8125 0.92435,1.13642 0.93833,2.89296 0.70062,4.33842 -0.18627,1.1327 -1.01076,2.064 -1.60883,3.04483 -0.9086,0.2811 -1.83986,-0.51661 -2.7293,-0.86169 -1.18158,-0.45843 -2.35176,-0.97039 -3.44907,-1.60015 0.0391,-0.89347 0.80582,-1.77526 1.3659,-2.56593 0.49615,-0.70042 1.0945,-1.33311 1.74288,-1.89557 0.56594,-0.49095 1.10882,-1.18399 1.8528,-1.27241 z"
           id="path8815"
           style="fill:#ff6961;stroke:none" />
        <path
           d="m 242.01966,709.06977 c -0.64346,-0.15097 -1.27044,-0.36515 -1.90566,-0.54773 1.13791,-2.54828 2.35162,-5.06415 3.4291,-7.63886 0.58513,-1.3982 1.23424,-2.77987 1.64744,-4.23816 0.53321,-1.88183 0.76907,-3.83708 1.059,-5.77138 0.23562,-1.57196 0.36822,-3.15764 0.55233,-4.73646 0.89658,0.20034 1.75459,0.52708 2.63942,0.76353 0.75501,0.20176 1.51952,0.3663 2.27694,0.5588 0.41752,0.10611 0.83327,0.21907 1.2499,0.32861 -2.25229,5.89516 -4.34569,11.88962 -5.66461,18.0591 -0.32355,1.51348 -0.3612,3.07422 -0.54325,4.61115 -0.35913,0.0216 -0.89609,-0.28978 -1.33825,-0.4514 -0.50094,-0.18311 -0.97572,-0.44039 -1.48856,-0.58691 -0.62358,-0.17816 -1.28241,-0.20215 -1.9138,-0.35029 z"
           id="path8811"
           style="fill:#ff6961;stroke:none" />
        <path
           d="m 225.0625,681.45593 c -0.29177,5.25222 -0.33822,10.61594 -1.74795,15.68384 -0.60581,2.17785 -1.82034,4.1406 -2.8371,6.15965 -0.51023,1.1088 0.95868,0.62815 1.48916,0.83357 1.91781,0.74266 3.96487,1.17428 6.00922,1.39824 3.00008,0.32866 6.31282,1.16959 9.05359,-0.094 0.9357,-0.43139 1.51154,-1.44016 2.03167,-2.32959 0.76332,-1.30529 1.51866,-2.76282 1.51761,-4.27492 -9e-4,-1.29889 -0.54479,-2.61982 -1.3087,-3.67032 -0.681,-0.93648 -1.7198,-1.59577 -2.75308,-2.11834 -1.20121,-0.6075 -2.53506,-1.07032 -3.88029,-1.11845 -1.30224,-0.0466 -2.54268,0.57087 -3.82408,0.81148 0.78134,-3.18544 1.89654,-6.32053 3.5625,-9.15625 -1.68914,-1.49423 -4.08575,-1.62172 -6.23,-2.04566 -0.35495,-0.0702 -0.7219,-0.0513 -1.08255,-0.0793 0,0 0,3e-5 0,5e-5 z m 6.8125,14 c 0.96786,0.27906 2.07978,0.72228 2.55799,1.60881 0.44532,0.82556 0.24417,1.92487 -0.0563,2.81345 -0.33579,0.99304 -0.90948,2.09125 -1.8582,2.53714 -1.56449,0.7353 -3.77357,0.0525 -5.1767,-0.3107 0.12261,-1.25264 0.73934,-2.41932 0.83002,-3.84027 0.0883,-1.00863 0.66536,-2.15121 1.81853,-2.17203 0.67052,-0.0908 1.23033,-0.52891 1.88462,-0.6364 1e-5,0 3e-5,0 4e-5,0 z"
           id="path8809"
           style="fill:#ff6961;stroke:none" />
        <path
           d="m 209.76564,702.07989 c 0.31204,-1.37769 0.87631,-2.00074 0.9267,-2.96915 0.60732,-2.47514 1.28098,-4.96216 1.37929,-7.52277 -0.89775,-0.8489 -2.21481,-0.90553 -3.37899,-1.15203 -0.7881,-0.16687 -0.76604,-0.0582 -2.40722,-0.21416 -0.48411,1.80722 -0.97762,4.22656 -1.17569,6.37991 -0.15062,1.63743 -0.004,3.28869 -0.006,4.93303 -2.21334,-0.41058 -4.51523,-0.50329 -6.61965,-1.37069 0.62655,-1.48415 0.96375,-2.52039 1.44773,-3.77977 0.6204,-1.61436 1.40879,-3.17323 1.86662,-4.841 0.74514,-2.71439 1.40856,-5.511 1.41041,-8.32581 0.001,-2.04836 -0.51227,-4.1234 -1.01841,-6.0601 0.95236,-0.005 1.74556,0.0438 2.60709,0.17115 1.52939,0.22616 3.59771,0.62483 4.51797,1.04867 -0.76463,1.25895 -1.0105,2.37826 -1.34341,3.62227 -0.37912,1.41667 -0.94721,2.85501 -0.73488,4.33776 1.77212,0.58597 3.64191,0.91613 5.51192,0.84977 0.0564,-2.46422 1.16866,-5.32703 1.15727,-7.99622 1.58212,-0.11666 3.86003,0.9097 5.4462,0.8837 -0.81352,1.74707 -1.64476,3.86429 -2.2248,5.87708 -0.81006,2.81099 -1.47707,5.6887 -1.73721,8.6025 -0.23186,2.59706 0.33961,3.85945 0.16566,7.82042 -1.28321,0.11723 -1.98436,0.0911 -2.97463,0.0392 -0.94393,-0.0495 -2.09305,-0.0786 -2.81597,-0.33376 z"
           id="path8801"
           style="fill:#ff6961;stroke:none" />
        <g
           transform="translate(-3.7998221,0)"
           id="g9547">
          <path
             d="m 128.52587,700.90828 c -0.22636,-0.85031 -0.58609,-1.75408 -0.38719,-2.61123 0.0901,-0.38833 0.32555,-0.79945 0.67845,-0.98487 1.33372,-0.70079 3.1607,0.65005 4.51988,0 1.08117,-0.51708 1.79637,-1.69237 2.25677,-2.79886 1.46717,-3.52605 0.19436,-7.72006 1.25803,-11.38806 0.46915,-1.61783 1.00002,-3.37726 2.21837,-4.54048 1.42168,-1.35736 3.49297,-1.91695 5.41236,-2.34069 2.39998,-0.52983 4.91383,-0.12966 7.37074,-0.19449 0.14324,1.43712 0.28647,2.87423 0.42971,4.31135 -2.99526,0.50048 -6.30362,0.12672 -8.99271,1.54817 -1.30067,0.68753 -2.44672,1.83906 -3.06853,3.1724 -1.65363,3.54587 -0.13998,7.91314 -1.21831,11.67411 -0.45188,1.57606 -0.96189,3.29935 -2.15923,4.41942 -0.98941,0.92556 -2.43324,1.27598 -3.76269,1.53705 -1.25912,0.24726 -2.78962,0.7233 -3.84951,0 -0.53335,-0.36397 -0.54004,-1.17985 -0.70614,-1.80382 z"
             id="path8803"
             style="fill:#ff6961;stroke:none" />
          <path
             d="m 146.2253,698.90985 c -0.86127,-0.77819 -1.74538,-1.61392 -2.24598,-2.66119 -0.73374,-1.53502 -0.93343,-3.31046 -0.96799,-5.01148 -0.0493,-2.42678 0.78522,-5.62487 1.08944,-7.19987 0.40509,0 0.81018,0 1.21527,0 0.77527,2.26703 0.31562,6.68518 2.14904,9.27595 0.71892,1.01589 1.91219,1.87411 3.14988,2.00454 0.75715,0.0798 1.41839,-1.0398 2.1402,-0.79766 0.57297,0.19221 0.88294,0.93208 0.97335,1.52963 0.20314,1.34272 -0.0728,3.01116 -1.07252,3.9303 -0.95596,0.87896 -2.56069,0.97604 -3.83116,0.70711 -1.02692,-0.21738 -1.82067,-1.07361 -2.59953,-1.77733 z"
             id="path8799"
             style="fill:#ff6961;stroke:none" />
        </g>
        <path
           d="m 182.56127,699.98007 c -0.89107,-0.21821 -1.81162,-0.97267 -2.50327,-1.7092 -1.15045,-1.2251 -2.1205,-2.71638 -2.57593,-4.33409 -0.82317,-2.92395 -0.91863,-6.18278 -0.1148,-9.1121 0.61245,-2.23189 1.88925,-4.38758 3.61862,-5.92567 1.78846,-1.59065 4.14021,-2.77513 6.52295,-3.00166 1.85063,-0.17594 3.8293,0.36435 5.4148,1.3349 1.4984,0.91723 2.83723,2.33741 3.45111,3.98351 0.45966,1.23255 0,2.63095 0,3.94642 -1.3721,0 -2.7442,0 -4.1163,0 -0.50548,-1.82323 -0.22932,-4.08296 -1.51644,-5.46969 -0.73189,-0.78853 -1.97622,-1.26811 -3.03745,-1.09132 -0.99793,0.16624 -1.69573,1.14194 -2.36934,1.89675 -1.3008,1.45759 -2.57939,3.08381 -3.1207,4.96094 -0.76927,2.66762 -0.81182,5.67398 0,8.32896 0.41438,1.35519 1.12634,2.85911 2.37761,3.52436 0.99011,0.5264 2.3905,0.55645 3.36404,0 1.35625,-0.77519 1.73148,-2.61619 2.37844,-4.03809 0.42736,-0.93926 0.58075,-1.57959 0.97886,-2.93691 1.51155,-0.13857 3.44573,0.25013 4.7413,0.8975 -0.0202,1.14735 -0.0494,1.94232 -0.4044,2.82479 -0.79376,1.97318 -2.17096,3.72705 -3.72151,5.18283 -0.37364,0.3508 -0.8199,0.64498 -1.30292,0.81634 -1.8099,0.64209 -3.8266,1.03238 -5.71835,0.70181 -0.95029,-0.27375 -1.64061,-0.45037 -2.34632,-0.78038 z"
           id="path8797"
           style="fill:#ff6961;stroke:none" />
        <path
           d="m 161.41297,675.70593 c -1.48065,0.50462 -2.70291,1.67405 -3.71611,2.86585 -1.03749,1.22037 -1.86331,2.68232 -2.28389,4.2279 -1.51624,5.57198 -0.41667,11.54167 -0.625,17.3125 1.33333,-0.14583 2.66667,-0.29167 4,-0.4375 0.1517,-2.7492 0.28712,-5.4992 0.40625,-8.25 2.6125,-0.32012 3.2809,-0.43485 4.92693,-0.37592 1.34129,0.048 3.70796,0.18232 3.9826,0.59262 0.14563,2.67772 0.29033,5.35549 0.43422,8.0333 1.38542,0 2.77083,0 4.15625,0 -0.14241,-4.00226 -0.33863,-8.00664 -0.76593,-11.98788 -0.27138,-2.5285 0.0219,-5.28148 -1.14032,-7.54337 -0.96961,-1.88699 -2.59688,-3.63926 -4.5625,-4.4375 -1.48628,-0.60358 -3.29409,-0.51749 -4.8125,0 z m -0.25,4.71875 c 1.16561,-0.76792 3.04345,-0.79969 4.1875,0 1.49898,1.04778 1.36596,3.39898 1.8849,5.15269 0.15497,0.52372 0.2434,1.06487 0.3651,1.59731 -2.54167,0 -5.87883,0.35355 -8.4205,0.35355 -0.27652,-0.69571 -0.17857,-1.64767 -0.017,-2.4473 0.33456,-1.65574 0.58941,-3.72693 2,-4.65625 z"
           id="path8795"
           style="fill:#ff6961;stroke:none" />
        <g
           transform="translate(-2,0)"
           id="g9543">
          <path
             d="m 114.64423,704.70992 c -1.30456,-1.1684 -2.13272,-2.8699 -2.62687,-4.55003 -0.43836,-1.4904 -0.47029,-3.12089 -0.22606,-4.6551 0.33333,-2.09397 1.1322,-3.9952 2.26607,-5.94366 0.78376,-0.1466 1.56751,-0.29319 2.35127,-0.43979 -0.25401,2.73008 -1.77637,5.53156 -1.01663,8.16793 0.33964,1.17857 1.2249,2.31321 2.32792,2.84961 1.00803,0.49021 2.37366,-0.46328 3.36207,0.0654 0.57478,0.30743 1.13085,0.95342 1.11695,1.6051 -0.0267,1.25245 -1.29097,2.21677 -2.27624,2.99045 -0.72792,0.5716 -1.61961,1.11088 -2.54512,1.10977 -0.99502,-10e-4 -1.99217,-0.53581 -2.73336,-1.19965 z"
             id="path8805"
             style="fill:#ff6961;stroke:none" />
          <path
             d="m 104.36465,690.25015 c -0.57463,-0.23756 -1.20503,-0.74655 -1.27165,-1.36477 -0.15804,-1.46657 1.15541,-2.82569 2.25763,-3.80595 2.12121,-1.8865 4.98777,-2.95728 7.78162,-3.46012 3.30072,-0.59407 6.79436,-0.21193 10.04177,0.62591 1.94331,0.50138 3.62688,1.71964 5.44032,2.57946 -0.18685,0.45 -0.37369,0.9 -0.56054,1.35 -1.36069,-0.35875 -2.76495,-0.49105 -4.16304,-0.58821 -2.12691,-0.14781 -4.30457,-0.40339 -6.39611,0.0102 -1.96712,0.38899 -3.76723,1.39561 -5.56652,2.28072 -1.33371,0.65607 -2.42944,1.82442 -3.85745,2.23672 -1.18767,0.3429 -2.56363,0.60831 -3.70603,0.13604 z"
             id="path8791"
             style="fill:#ff6961;stroke:none" />
        </g>
      </g>
      <g
         transform="matrix(0.95873751,0,0,0.99288596,9.1736353,-13.217209)"
         id="g9594">
        <path
           d="m 173.05019,665.13616 c -3.79487,-0.42004 -7.38633,-1.93912 -11.06374,-2.96496 -0.26789,-0.421 -0.53578,-0.84201 -0.80368,-1.26301 2.91334,0.25457 5.90591,1.48493 8.74001,0.76369 1.88194,-0.47893 3.77404,-1.60659 4.85525,-3.21968 0.47631,-0.71062 0.33277,-1.67829 0.49916,-2.51743 -2.16403,0.28809 -4.33918,1.22618 -6.49209,0.86426 -1.38913,-0.23352 -2.81269,-0.86923 -3.77633,-1.89667 -1.3568,-1.44663 -2.26834,-3.49459 -2.32464,-5.47714 -0.0384,-1.35223 0.50234,-2.78269 1.37098,-3.81973 0.98636,-1.17759 2.51287,-1.89775 3.99718,-2.29331 1.32346,-0.35269 2.79704,-0.39346 4.10896,0 1.95704,0.58694 3.41188,2.2488 5.11782,3.3732 1.81516,-0.8994 3.47307,-2.23634 5.44548,-2.6982 1.53605,-0.35968 3.23838,-0.50553 4.73279,0 1.37762,0.46602 2.64632,1.448 3.46692,2.64867 1.15521,1.69027 1.69118,3.85435 1.70126,5.90164 0.009,1.82903 -0.5663,3.69578 -1.46788,5.28719 -1.01752,1.79606 -2.56848,3.31488 -4.26672,4.48841 -1.76297,1.21826 -3.83344,2.02781 -5.92473,2.49547 -2.57727,0.57633 -5.29111,0.61814 -7.916,0.3276 z"
           id="path8789"
           style="fill:#ff6961;stroke:none" />
        <path
           d="m 177.91506,643.51378 c 0.93306,-2.71478 2.65798,-5.22322 2.58245,-8.0227 -0.0338,-1.25216 -0.44123,-2.62882 -1.34701,-3.52548 -1.09818,-1.08711 -2.81238,-1.64275 -4.38457,-1.68275 -2.41662,-0.0615 -4.639,1.34424 -6.87127,2.24029 -0.90547,0.36346 -1.72823,0.90354 -2.63295,1.26696 -0.60815,-0.61224 -0.53759,-1.1113 -0.4689,-1.42466 3.46984,-1.73801 7.08444,-3.77642 10.98176,-3.88966 1.11457,-0.0324 2.27243,0.33654 3.20419,0.92802 1.32452,0.8408 2.56746,2.05993 3.06009,3.51473 0.64401,1.90183 0.0528,4.04032 -0.41637,5.98928 -0.39128,1.62533 -1.35323,3.07006 -1.96992,4.63054 -0.67219,0.31998 -1.21066,0.11656 -1.7375,-0.0246 z"
           id="path8787"
           style="fill:#ff6961;stroke:none" />
        <path
           d="m 142.00486,629.90517 c -1.07697,-1.30626 -3.82971,-3.79704 -3.13184,-4.95597 3.10366,-0.30543 6.26627,-0.0579 9.34818,-0.55357 7.91719,-1.27339 15.29881,-5.13606 23.24953,-6.17987 3.67219,-0.4821 7.45699,-0.61834 11.11108,-0.0142 5.79919,0.95879 10.90792,4.62965 16.68811,5.69704 5.63671,1.0409 11.48063,0.10136 17.18474,0.62298 -0.79578,1.59591 -1.79078,3.08292 -2.7003,4.61551 -5.46024,0.0876 -10.97977,-0.26896 -16.28824,-1.51548 -6.68014,-1.56861 -12.40607,-6.47786 -19.20357,-7.41529 -2.74009,-0.37788 -5.59534,0.0444 -8.26112,0.7823 -5.52652,1.5298 -10.05074,5.70068 -15.52259,7.41579 -3.81285,1.19511 -7.84246,1.59495 -11.83072,1.93115 -0.2144,-0.14343 -0.42898,-0.28718 -0.64326,-0.43039 z"
           id="path8785"
           style="fill:#ff6961;stroke:none" />
        <path
           d="m 132.91506,618.60748 c -0.81505,-2.85706 -3.4207,-4.95879 -4.70268,-7.57158 3.82035,-0.12044 7.53125,1.26161 11.33596,1.38037 4.16733,0.13008 8.42575,0.21089 12.48649,-0.7346 7.03622,-1.63829 12.88615,-7.01145 19.97289,-8.41519 3.01359,-0.59693 6.2,-0.51326 9.21615,0.0706 5.62541,1.08896 10.45149,4.84852 15.99643,6.29234 4.68857,1.22083 9.55883,2.0317 14.40308,1.95176 4.3455,-0.0717 8.68035,-0.91466 12.85538,-2.17616 -0.0182,2.4801 -2.34137,4.15201 -3.6941,6.05109 -0.62456,1.39532 -2.26364,0.74684 -3.44032,0.8561 -3.25718,0.30244 -6.54924,-0.18221 -9.79666,-0.57586 -3.89398,-0.47203 -7.8243,-0.97814 -11.57193,-2.13623 -5.35928,-1.65612 -9.96516,-5.37495 -15.38683,-6.81372 -2.26048,-0.59987 -4.66512,-1.04865 -6.97975,-0.71382 -10.0229,1.4499 -18.32329,8.92185 -28.10906,11.52942 -2.94656,0.78516 -6.02189,1.08411 -9.06905,1.20032 -1.17294,0.0447 -2.46224,0.50202 -3.516,-0.19481 z"
           id="path8783"
           style="fill:#ff6961;stroke:none" />
        <path
           d="m 67.616385,601.86105 c -2.212618,-0.71217 -4.473419,-1.6934 -6.25823,-3.02149 2.579335,0.17071 5.215192,0 7.301268,-1.00715 2.086077,-1.00718 3.129116,-2.01435 3.129116,-2.01435 -4.172154,-1.00716 -4.172154,-1.00716 -6.258231,-2.01433 -2.242465,-1.08267 -4.172153,-3.02149 -4.172153,-5.03582 0,-2.01433 1.043038,-4.02867 2.086077,-5.03583 2.086076,-2.01433 4.172153,-2.01433 6.25823,-2.01433 3.510125,0.10387 5.642841,1.42012 7.301268,3.02152 1.915806,-0.25503 4.321388,-0.723 6.43165,-0.34058 1.900719,0.34445 3.913491,0.99619 5.283619,2.31407 1.636716,1.5743 2.887268,3.06231 2.887268,6.08381 0,3.02149 -1.584042,5.1062 -3.582051,6.73169 -2.944432,2.39545 -6.848332,3.33996 -11.020486,3.33996 -3.417636,0 -6.25823,0 -9.387345,-1.00717 z"
           id="path8781"
           style="fill:#ff6961;stroke:none" />
        <path
           d="m 266.83671,600.85389 c -1.80388,-0.45748 -3.45419,-0.99769 -5.17648,-2.05066 1.4673,0.0353 3.47638,-0.53976 5.17648,-0.97084 1.06341,-0.26964 1.79831,-0.486 3.12912,-1.00716 -1.86997,-0.81314 -4.11928,-1.18947 -5.58393,-2.59625 -1.48728,-1.42851 -2.76038,-2.43958 -2.76038,-5.46107 0,-3.0215 0.59043,-3.59945 1.81737,-4.84173 1.36689,-1.38398 3.39782,-2.20843 5.4839,-2.20843 3.12911,0 6.25823,2.01433 7.42156,3.9086 1.96578,-0.8871 3.16273,-1.37112 4.84578,-1.65577 1.50496,-0.25453 3.11094,-0.43037 4.57891,-0.0267 1.125,0.30936 1.92795,0.7949 2.97148,1.80253 1.04303,1.00717 2.08607,2.01433 2.08607,4.02866 0,2.01433 0,3.0215 -1.04303,5.03583 -1.04304,2.01433 -2.08608,3.02149 -3.12912,4.02866 -2.08608,2.01433 -7.30127,3.02149 -11.47342,3.02149 -2.67263,0 -5.63317,-0.31961 -8.34431,-1.00716 z"
           id="path8779"
           style="fill:#ff6961;stroke:none" />
        <path
           d="m 170.91797,600.96963 c -1.11472,-0.1507 -2.60254,-0.48634 -3.29741,-0.70272 l -0.23972,-0.27206 c 2.01871,-0.002 3.46667,-0.0843 5.09749,-0.58449 1.55107,-0.4757 3.24351,-1.04531 4.2919,-2.24726 0.55322,-0.63426 0.86384,-1.58205 0.82514,-2.35671 -1.92808,0.31067 -5.32239,0.63215 -7.54139,-0.52158 -1.96753,-1.02298 -3.79023,-2.99642 -4.08069,-5.13588 -0.25617,-1.88689 0.84965,-3.95119 2.2682,-5.27228 1.79743,-1.67394 4.52162,-2.60081 7.0178,-2.53176 2.04382,0.0565 4.03692,1.18997 5.61372,2.38719 1.19673,-0.71722 2.82102,-1.18114 4.24596,-0.91948 1.96193,0.36027 4.17218,1.47634 4.95671,3.24971 1.29566,2.92873 0.19167,6.77542 -1.64368,9.42153 -1.68643,2.43141 -4.89384,3.57629 -7.71544,4.64415 -1.83597,0.69483 -3.84191,0.95444 -5.80978,1.07685 -1.32933,0.0827 -2.6696,-0.0568 -3.98881,-0.23521 z"
           id="path8777"
           style="fill:#ff6961;stroke:none" />
        <path
           d="m 220.65637,593.81705 c -12.0435,-3.11195 -21.1976,-13.90888 -33.27229,-16.89754 -7.10319,-1.75814 -14.78296,-1.81356 -21.95002,-0.33723 -7.40131,1.52458 -13.71449,6.35883 -20.68449,9.27822 -6.98789,2.92688 -13.5952,7.5933 -21.17664,8.25377 -4.3674,0.38047 -8.72265,-1.23261 -12.88345,-2.56961 -10.15441,-3.26295 -18.71207,-10.55005 -29.063921,-13.17145 -6.815661,-1.72593 -14.017481,-1.39331 -21.08035,-1.51184 l -2.356955,-5.97317 c 10.648328,-0.51415 22.177735,3.55108 32.673787,7.25679 7.846288,2.77019 14.338849,8.69882 22.288419,11.0678 3.19281,0.95146 6.61715,1.57867 9.92478,1.18004 8.5761,-1.03359 16.27165,-5.82203 24.26945,-9.08593 8.93067,-3.64461 16.88056,-10.59081 26.46083,-11.71256 5.01415,-0.5871 10.1417,1.05224 14.89068,2.76503 6.52196,2.35224 12.08725,6.79569 18.16596,10.1301 5.20233,2.85368 9.83084,7.37719 15.66628,8.45202 4.26416,0.78542 8.7951,-0.2874 12.89716,-1.69206 7.71223,-2.64089 13.5872,-9.2054 21.10815,-12.34994 6.28434,-2.62751 12.93449,-4.89694 19.73373,-5.30571 6.93441,-0.4169 14.12436,0.0716 20.62939,2.96095 l -4.73708,3.73114 c -7.03666,-2.81045 -14.93238,-2.84543 -22.34392,-1.89482 -5.37172,0.68898 -10.26526,3.36679 -15.26154,5.40789 -8.99376,3.67417 -16.90774,10.3588 -26.43006,12.28566 -2.44141,0.49402 -5.05621,0.35561 -7.4679,-0.26755 z"
           id="path8775"
           style="fill:#ff6961;stroke:none" />
        <path
           d="m 223.08146,585.71346 c -7.20993,-1.81116 -13.24603,-6.75454 -19.93254,-10.00325 -7.51957,-3.65346 -14.42186,-9.48579 -22.69778,-10.66939 -5.50509,-0.78732 -11.1772,0.9134 -16.48251,2.5806 -11.89257,3.73726 -21.6317,12.95506 -33.61515,16.38974 -4.35116,1.24712 -9.02088,2.03611 -13.50484,1.41801 -5.19641,-0.71631 -9.79726,-3.75854 -14.62231,-5.81637 -9.877247,-4.21252 -18.867157,-10.87163 -29.312649,-13.36101 -5.818103,-1.38658 -11.957614,-0.45232 -17.928616,-0.7218 l -1.9501,-6.3187 c 5.502768,-0.20997 12.431242,0.37614 18.323485,2.07651 15.283462,4.41046 27.395643,16.95508 42.79481,20.67898 3.6848,0.89108 7.66877,1.0994 11.36964,0.27761 12.24278,-2.71854 21.8562,-12.59397 33.68826,-16.7507 5.95872,-2.09336 12.20034,-3.86545 18.51396,-4.02858 4.0677,-0.1051 8.22387,0.58062 12.04616,1.97608 6.54645,2.39001 11.92954,7.20977 17.95911,10.7044 4.98544,2.88947 9.39093,7.45946 15.06123,8.4848 3.71163,0.67116 7.62385,-0.49073 11.17937,-1.74968 9.4874,-3.35932 16.74863,-11.47716 26.12185,-15.14301 6.79218,-2.65641 14.06423,-4.47304 21.35092,-4.78015 7.1864,-0.30288 14.64139,0.78587 21.37907,2.92584 l -3.63952,4.30488 c -6.08584,-2.54366 -15.60272,-2.76449 -23.39646,-2.03402 -6.44429,0.60399 -12.61925,2.93293 -18.64938,5.24293 -10.17686,3.89852 -18.68374,12.11654 -29.33026,14.44434 -1.53946,0.3366 -3.19741,0.25587 -4.72575,-0.12806 z"
           id="path8773"
           style="fill:#ff6961;stroke:none" />
        <path
           d="m 209.4696,567.61744 c 0,-2.01433 0.57965,-3.41352 1.74933,-4.58863 2.17011,-2.18019 5.55194,-3.46869 8.68106,-3.46869 3.12911,0 5.21519,1.00717 8.3443,2.01433 3.12912,1.00717 6.25823,2.01433 10.43039,2.01433 4.17215,0 8.35137,-2.29346 11.47342,-4.02866 l 1.04304,1.00717 c -3.9432,2.98618 -8.34452,6.87586 -13.23429,9.143 -5.69567,2.64079 -11.79863,4.95731 -18.24619,4.95731 -3.98283,0 -10.24106,-3.18713 -10.24106,-7.05016 z"
           id="path8771"
           style="fill:#ff6961;stroke:none" />
        <path
           d="m 106.09842,573.31252 c -2.30837,-1.07975 -4.8671,-2.61519 -5.73927,-4.93526 -0.762769,-2.02907 -0.471264,-4.76399 0.99024,-6.40178 1.84016,-2.06211 4.55985,-2.43812 8.10047,-2.41432 3.83649,0.0258 8.66943,3.34056 13.25558,3.71672 4.14768,0.34019 8.40727,-0.25457 12.40774,-1.36044 1.8187,-0.50275 3.3931,-1.60894 5.12043,-2.35628 0.4795,0.28639 0.959,0.55538 1.4385,0.84177 -3.10732,2.68019 -5.9382,5.76776 -9.54699,7.78117 -5.64668,3.1504 -11.90478,5.88972 -18.41011,6.43048 -2.56914,0.21356 -5.29801,-0.21754 -7.61659,-1.30206 z"
           id="path8762"
           style="fill:#ff6961;stroke:none" />
      </g>
      <path
         d="m 19.999999,542.36198 0,5 7.6,0 0,45 5,0 0,-45 7.4,0 0,-5 -7.4,0 -5,0 z"
         id="rect4130-4-45"
         style="fill:#ff6961;fill-opacity:1;stroke:none" />
      <path
         d="m 180,742.36218 c 0,0 8,13.33333 17.33333,22.66667 9.33334,9.33333 22.66667,17.33333 22.66667,17.33333 0,0 -13.33333,8 -22.66667,17.33333 C 188,809.02885 180,822.36218 180,822.36218 c 0,0 -8,-13.33333 -17.33333,-22.66667 C 153.33333,790.36218 140,782.36218 140,782.36218 c 0,0 13.33333,-8 22.66667,-17.33333 C 172,755.69551 180,742.36218 180,742.36218"
         id="path3204"
         style="fill:#ff6961;stroke:none" />
      <path
         d="m 330,932.36208 c 0,0 3,5 6.5,8.5 3.49999,3.5 8.5,6.5 8.5,6.5 0,0 -5.00001,3 -8.5,6.5 -3.5,3.5 -6.5,8.5 -6.5,8.5 0,0 -3,-5 -6.5,-8.5 -3.5,-3.5 -8.5,-6.5 -8.5,-6.5 0,0 5,-3 8.5,-6.5 3.5,-3.5 6.5,-8.5 6.5,-8.5"
         id="path3204-5"
         style="fill:#ff6961;stroke:none" />
      <path
         d="m 29.999999,602.36198 c 0,0 3,5 6.5,8.5 3.49999,3.5 8.5,6.5 8.5,6.5 0,0 -5.00001,3 -8.5,6.5 -3.5,3.5 -6.5,8.5 -6.5,8.5 0,0 -3,-5 -6.5,-8.5 -3.5,-3.5 -8.5,-6.5 -8.5,-6.5 0,0 5,-3 8.5,-6.5 3.5,-3.5 6.5,-8.5 6.5,-8.5"
         id="path3204-5-1"
         style="fill:#ff6961;stroke:none" />
      <path
         d="m 320,1022.3621 0,-5 7.6,0 0,-45.00002 5,0 0,45.00002 7.4,0 0,5 -7.4,0 -5,0 z"
         id="rect4130-4-1-5"
         style="fill:#ff6961;fill-opacity:1;stroke:none" />
    </g>
  </g>
</svg>
